<svg width="32" height="16" viewBox="0 0 32 16" fill="none" xmlns="http://www.w3.org/2000/svg">
<g filter="url(#filter0_i_2_25)">
<path d="M14.4 16H8C5.78667 16 3.9 15.22 2.34 13.66C0.78 12.1 0 10.2133 0 8C0 5.78667 0.78 3.9 2.34 2.34C3.9 0.78 5.78667 0 8 0H14.4V3.2H8C6.66667 3.2 5.53333 3.66667 4.6 4.6C3.66667 5.53333 3.2 6.66667 3.2 8C3.2 9.33333 3.66667 10.4667 4.6 11.4C5.53333 12.3333 6.66667 12.8 8 12.8H14.4V16ZM9.6 9.6V6.4H22.4V9.6H9.6ZM17.6 16V12.8H24C25.3333 12.8 26.4667 12.3333 27.4 11.4C28.3333 10.4667 28.8 9.33333 28.8 8C28.8 6.66667 28.3333 5.53333 27.4 4.6C26.4667 3.66667 25.3333 3.2 24 3.2H17.6V0H24C26.2133 0 28.1 0.78 29.66 2.34C31.22 3.9 32 5.78667 32 8C32 10.2133 31.22 12.1 29.66 13.66C28.1 15.22 26.2133 16 24 16H17.6Z" fill="#CDCDCD"/>
</g>
<path d="M14.15 15.75H8C5.85273 15.75 4.02972 14.9962 2.51678 13.4832C1.00383 11.9703 0.25 10.1473 0.25 8C0.25 5.85273 1.00383 4.02972 2.51678 2.51678C4.02972 1.00383 5.85273 0.25 8 0.25H14.15V2.95H8C6.60112 2.95 5.40397 3.44247 4.42322 4.42322C3.44247 5.40397 2.95 6.60112 2.95 8C2.95 9.39888 3.44247 10.596 4.42322 11.5768C5.40397 12.5575 6.60112 13.05 8 13.05H14.15V15.75ZM9.85 6.65H22.15V9.35H9.85V6.65ZM17.85 15.75V13.05H24C25.3989 13.05 26.596 12.5575 27.5768 11.5768C28.5575 10.596 29.05 9.39888 29.05 8C29.05 6.60112 28.5575 5.40397 27.5768 4.42322C26.596 3.44247 25.3989 2.95 24 2.95H17.85V0.25H24C26.1473 0.25 27.9703 1.00383 29.4832 2.51678C30.9962 4.02972 31.75 5.85273 31.75 8C31.75 10.1473 30.9962 11.9703 29.4832 13.4832C27.9703 14.9962 26.1473 15.75 24 15.75H17.85Z" stroke="#666666" stroke-width="0.5"/>
<defs>
<filter id="filter0_i_2_25" x="0" y="0" width="32" height="19" filterUnits="userSpaceOnUse" color-interpolation-filters="sRGB">
<feFlood flood-opacity="0" result="BackgroundImageFix"/>
<feBlend mode="normal" in="SourceGraphic" in2="BackgroundImageFix" result="shape"/>
<feColorMatrix in="SourceAlpha" type="matrix" values="0 0 0 0 0 0 0 0 0 0 0 0 0 0 0 0 0 0 127 0" result="hardAlpha"/>
<feOffset dy="3"/>
<feGaussianBlur stdDeviation="2.1"/>
<feComposite in2="hardAlpha" operator="arithmetic" k2="-1" k3="1"/>
<feColorMatrix type="matrix" values="0 0 0 0 0.83329 0 0 0 0 0.83329 0 0 0 0 0.83329 0 0 0 1 0"/>
<feBlend mode="normal" in2="shape" result="effect1_innerShadow_2_25"/>
</filter>
</defs>
</svg>
