<svg width="229" height="200" viewBox="0 0 229 200" fill="none" xmlns="http://www.w3.org/2000/svg">
<g filter="url(#filter0_d_131_125)">
<path d="M139.554 38.0165L55.2561 152.066C35.8053 170.262 4.01648 156.47 4.01648 129.835V38.0165H139.554Z" fill="#1E2F50"/>
<path d="M24.8011 133.934V56.9339H58.0211C62.8611 56.9339 67.1511 58.0339 70.8911 60.2339C74.7044 62.4339 77.7111 65.4406 79.9111 69.2539C82.1844 73.0672 83.3211 77.3572 83.3211 82.1239C83.3211 87.1106 82.1844 91.5839 79.9111 95.5439C77.7111 99.4306 74.7044 102.511 70.8911 104.784C67.1511 107.057 62.8611 108.194 58.0211 108.194H43.5011V133.934H24.8011ZM43.1711 91.8039H55.3811C56.9944 91.8039 58.4611 91.4006 59.7811 90.5939C61.1011 89.7872 62.1644 88.6872 62.9711 87.2939C63.7778 85.9006 64.1811 84.2872 64.1811 82.4539C64.1811 80.5472 63.7778 78.9339 62.9711 77.6139C62.1644 76.2939 61.1011 75.2672 59.7811 74.5339C58.4611 73.8006 56.9944 73.4339 55.3811 73.4339H43.1711V91.8039Z" fill="#E0E0E0"/>
<path d="M65.9999 161.983L150.297 47.9339C169.748 29.7379 201.537 43.5302 201.537 70.1652L201.537 161.983L65.9999 161.983Z" fill="#E13030"/>
<path d="M157.833 137.117V80.3165L161.533 88.8165L146.533 95.9165L143.633 80.7165L163.533 71.0165H174.533V137.117H157.833ZM145.033 142.017V127.017H187.633V142.017H145.033Z" fill="#DADADA"/>
</g>
<defs>
<filter id="filter0_d_131_125" x="0.0164795" y="0" width="232.793" height="208" filterUnits="userSpaceOnUse" color-interpolation-filters="sRGB">
<feFlood flood-opacity="0" result="BackgroundImageFix"/>
<feColorMatrix in="SourceAlpha" type="matrix" values="0 0 0 0 0 0 0 0 0 0 0 0 0 0 0 0 0 0 127 0" result="hardAlpha"/>
<feOffset dy="4"/>
<feGaussianBlur stdDeviation="2"/>
<feComposite in2="hardAlpha" operator="out"/>
<feColorMatrix type="matrix" values="0 0 0 0 0 0 0 0 0 0 0 0 0 0 0 0 0 0 0.25 0"/>
<feBlend mode="normal" in2="BackgroundImageFix" result="effect1_dropShadow_131_125"/>
<feBlend mode="normal" in="SourceGraphic" in2="effect1_dropShadow_131_125" result="shape"/>
</filter>
</defs>
</svg>
