<svg width="230" height="208" viewBox="0 0 230 208" fill="none" xmlns="http://www.w3.org/2000/svg">
<g filter="url(#filter0_d_140_108)">
<path d="M140.124 38.0165L55.8264 152.066V152.066C36.3756 170.262 4.58678 156.47 4.58678 129.835V38.0165H140.124Z" fill="#C03535"/>
<path d="M25.3714 133.934V56.9339H58.5914C63.4314 56.9339 67.7214 58.0339 71.4614 60.2339C75.2748 62.4339 78.2814 65.4406 80.4814 69.2539C82.7548 73.0672 83.8914 77.3572 83.8914 82.1239C83.8914 87.1106 82.7548 91.5839 80.4814 95.5439C78.2814 99.4306 75.2748 102.511 71.4614 104.784C67.7214 107.057 63.4314 108.194 58.5914 108.194H44.0714V133.934H25.3714ZM43.7414 91.8039H55.9514C57.5648 91.8039 59.0314 91.4006 60.3514 90.5939C61.6714 89.7872 62.7348 88.6872 63.5414 87.2939C64.3481 85.9006 64.7514 84.2872 64.7514 82.4539C64.7514 80.5472 64.3481 78.9339 63.5414 77.6139C62.7348 76.2939 61.6714 75.2672 60.3514 74.5339C59.0314 73.8006 57.5648 73.4339 55.9514 73.4339H43.7414V91.8039Z" fill="#E0E0E0"/>
<path d="M66.5703 161.983L150.868 47.9339V47.9339C170.319 29.7379 202.107 43.5302 202.107 70.1652L202.107 161.983L66.5703 161.983Z" fill="#545454"/>
<path d="M137.269 137.305V106.065L139.304 110.74L131.054 114.645L129.459 106.285L140.404 100.95H146.454V137.305H137.269ZM130.229 140V131.75H153.659V140H130.229ZM175.029 140.55C171.583 140.55 168.631 139.762 166.174 138.185C163.754 136.608 161.903 134.353 160.619 131.42C159.336 128.45 158.694 124.893 158.694 120.75C158.694 116.607 159.336 113.068 160.619 110.135C161.903 107.165 163.754 104.892 166.174 103.315C168.631 101.738 171.583 100.95 175.029 100.95C178.476 100.95 181.428 101.738 183.884 103.315C186.341 104.892 188.211 107.165 189.494 110.135C190.778 113.068 191.419 116.607 191.419 120.75C191.419 124.893 190.778 128.45 189.494 131.42C188.211 134.353 186.341 136.608 183.884 138.185C181.428 139.762 178.476 140.55 175.029 140.55ZM175.029 132.63C177.413 132.63 179.246 131.603 180.529 129.55C181.849 127.497 182.509 124.563 182.509 120.75C182.509 116.827 181.849 113.82 180.529 111.73C179.246 109.603 177.413 108.54 175.029 108.54C172.646 108.54 170.794 109.603 169.474 111.73C168.191 113.82 167.549 116.827 167.549 120.75C167.549 124.563 168.191 127.497 169.474 129.55C170.794 131.603 172.646 132.63 175.029 132.63Z" fill="#E3E3E3"/>
</g>
<defs>
<filter id="filter0_d_140_108" x="0.586792" y="0" width="232.793" height="208" filterUnits="userSpaceOnUse" color-interpolation-filters="sRGB">
<feFlood flood-opacity="0" result="BackgroundImageFix"/>
<feColorMatrix in="SourceAlpha" type="matrix" values="0 0 0 0 0 0 0 0 0 0 0 0 0 0 0 0 0 0 127 0" result="hardAlpha"/>
<feOffset dy="4"/>
<feGaussianBlur stdDeviation="2"/>
<feComposite in2="hardAlpha" operator="out"/>
<feColorMatrix type="matrix" values="0 0 0 0 0 0 0 0 0 0 0 0 0 0 0 0 0 0 0.25 0"/>
<feBlend mode="normal" in2="BackgroundImageFix" result="effect1_dropShadow_140_108"/>
<feBlend mode="normal" in="SourceGraphic" in2="effect1_dropShadow_140_108" result="shape"/>
</filter>
</defs>
</svg>
