<svg width="229" height="200" viewBox="0 0 229 200" fill="none" xmlns="http://www.w3.org/2000/svg">
<g filter="url(#filter0_d_131_62)">
<path d="M139.727 38.0165L55.4297 152.066C35.9789 170.262 4.19006 156.47 4.19006 129.835V38.0165H139.727Z" fill="#358C75"/>
<path d="M24.9747 133.934V56.9339H58.1947C63.0347 56.9339 67.3247 58.0339 71.0647 60.2339C74.8781 62.4339 77.8847 65.4406 80.0847 69.2539C82.3581 73.0672 83.4947 77.3572 83.4947 82.1239C83.4947 87.1106 82.3581 91.5839 80.0847 95.5439C77.8847 99.4306 74.8781 102.511 71.0647 104.784C67.3247 107.057 63.0347 108.194 58.1947 108.194H43.6747V133.934H24.9747ZM43.3447 91.8039H55.5547C57.1681 91.8039 58.6347 91.4006 59.9547 90.5939C61.2747 89.7872 62.3381 88.6872 63.1447 87.2939C63.9514 85.9006 64.3547 84.2872 64.3547 82.4539C64.3547 80.5472 63.9514 78.9339 63.1447 77.6139C62.3381 76.2939 61.2747 75.2672 59.9547 74.5339C58.6347 73.8006 57.1681 73.4339 55.5547 73.4339H43.3447V91.8039Z" fill="#E0E0E0"/>
<path d="M66.1735 161.983L150.471 47.9339C169.922 29.7379 201.711 43.5302 201.711 70.1652L201.711 161.983L66.1735 161.983Z" fill="#545454"/>
<path d="M136.872 137.305V106.065L138.907 110.74L130.657 114.645L129.062 106.285L140.007 100.95H146.057V137.305H136.872ZM129.832 140V131.75H153.262V140H129.832ZM174.633 140.55C171.186 140.55 168.234 139.762 165.778 138.185C163.358 136.608 161.506 134.353 160.223 131.42C158.939 128.45 158.298 124.893 158.298 120.75C158.298 116.607 158.939 113.068 160.223 110.135C161.506 107.165 163.358 104.892 165.778 103.315C168.234 101.738 171.186 100.95 174.633 100.95C178.079 100.95 181.031 101.738 183.488 103.315C185.944 104.892 187.814 107.165 189.098 110.135C190.381 113.068 191.023 116.607 191.023 120.75C191.023 124.893 190.381 128.45 189.098 131.42C187.814 134.353 185.944 136.608 183.488 138.185C181.031 139.762 178.079 140.55 174.633 140.55ZM174.633 132.63C177.016 132.63 178.849 131.603 180.133 129.55C181.453 127.497 182.113 124.563 182.113 120.75C182.113 116.827 181.453 113.82 180.133 111.73C178.849 109.603 177.016 108.54 174.633 108.54C172.249 108.54 170.398 109.603 169.078 111.73C167.794 113.82 167.153 116.827 167.153 120.75C167.153 124.563 167.794 127.497 169.078 129.55C170.398 131.603 172.249 132.63 174.633 132.63Z" fill="#E3E3E3"/>
</g>
<defs>
<filter id="filter0_d_131_62" x="0.190063" y="0" width="232.793" height="208" filterUnits="userSpaceOnUse" color-interpolation-filters="sRGB">
<feFlood flood-opacity="0" result="BackgroundImageFix"/>
<feColorMatrix in="SourceAlpha" type="matrix" values="0 0 0 0 0 0 0 0 0 0 0 0 0 0 0 0 0 0 127 0" result="hardAlpha"/>
<feOffset dy="4"/>
<feGaussianBlur stdDeviation="2"/>
<feComposite in2="hardAlpha" operator="out"/>
<feColorMatrix type="matrix" values="0 0 0 0 0 0 0 0 0 0 0 0 0 0 0 0 0 0 0.25 0"/>
<feBlend mode="normal" in2="BackgroundImageFix" result="effect1_dropShadow_131_62"/>
<feBlend mode="normal" in="SourceGraphic" in2="effect1_dropShadow_131_62" result="shape"/>
</filter>
</defs>
</svg>
