<svg width="229" height="200" viewBox="0 0 229 200" fill="none" xmlns="http://www.w3.org/2000/svg">
<g filter="url(#filter0_d_132_77)">
<path d="M139.554 38.0166L55.2561 152.066C35.8053 170.262 4.01648 156.47 4.01648 129.835V38.0166H139.554Z" fill="#43AAD7"/>
<path d="M24.8011 133.934V56.9339H58.0211C62.8611 56.9339 67.1511 58.0339 70.8911 60.2339C74.7044 62.4339 77.7111 65.4406 79.9111 69.2539C82.1844 73.0672 83.3211 77.3572 83.3211 82.1239C83.3211 87.1106 82.1844 91.5839 79.9111 95.5439C77.7111 99.4306 74.7044 102.511 70.8911 104.784C67.1511 107.057 62.8611 108.194 58.0211 108.194H43.5011V133.934H24.8011ZM43.1711 91.8039H55.3811C56.9944 91.8039 58.4611 91.4006 59.7811 90.5939C61.1011 89.7872 62.1644 88.6872 62.9711 87.2939C63.7778 85.9006 64.1811 84.2872 64.1811 82.4539C64.1811 80.5472 63.7778 78.9339 62.9711 77.6139C62.1644 76.2939 61.1011 75.2672 59.7811 74.5339C58.4611 73.8006 56.9944 73.4339 55.3811 73.4339H43.1711V91.8039Z" fill="#E0E0E0"/>
<path d="M65.9999 161.983L150.297 47.9339C169.748 29.7379 201.537 43.5302 201.537 70.1652L201.537 161.983L65.9999 161.983Z" fill="#CF77C6"/>
<path d="M140.19 137.305V106.065L142.225 110.74L133.975 114.645L132.38 106.285L143.325 100.95H149.375V137.305H140.19ZM133.15 140V131.75H156.58V140H133.15ZM162.66 140L160.845 135.49L172.065 123.225C172.688 122.528 173.367 121.74 174.1 120.86C174.833 119.98 175.548 119.082 176.245 118.165C176.942 117.212 177.492 116.295 177.895 115.415C178.335 114.535 178.555 113.728 178.555 112.995C178.555 112.262 178.39 111.62 178.06 111.07C177.73 110.52 177.253 110.098 176.63 109.805C176.007 109.475 175.218 109.31 174.265 109.31C173.422 109.31 172.615 109.53 171.845 109.97C171.075 110.373 170.342 111.015 169.645 111.895C168.985 112.775 168.362 113.857 167.775 115.14L160.845 111.4C161.615 109.273 162.697 107.403 164.09 105.79C165.52 104.14 167.188 102.875 169.095 101.995C171.002 101.078 173.037 100.62 175.2 100.62C177.473 100.657 179.527 101.152 181.36 102.105C183.193 103.022 184.642 104.323 185.705 106.01C186.805 107.66 187.355 109.603 187.355 111.84C187.355 112.61 187.263 113.417 187.08 114.26C186.897 115.103 186.622 115.983 186.255 116.9C185.888 117.78 185.393 118.733 184.77 119.76C184.183 120.75 183.468 121.795 182.625 122.895C181.782 123.995 180.792 125.168 179.655 126.415L170.91 135.93L169.81 131.75H189.06V140H162.66Z" fill="#E3E3E3"/>
</g>
<defs>
<filter id="filter0_d_132_77" x="0.0164795" y="0" width="232.793" height="208" filterUnits="userSpaceOnUse" color-interpolation-filters="sRGB">
<feFlood flood-opacity="0" result="BackgroundImageFix"/>
<feColorMatrix in="SourceAlpha" type="matrix" values="0 0 0 0 0 0 0 0 0 0 0 0 0 0 0 0 0 0 127 0" result="hardAlpha"/>
<feOffset dy="4"/>
<feGaussianBlur stdDeviation="2"/>
<feComposite in2="hardAlpha" operator="out"/>
<feColorMatrix type="matrix" values="0 0 0 0 0 0 0 0 0 0 0 0 0 0 0 0 0 0 0.25 0"/>
<feBlend mode="normal" in2="BackgroundImageFix" result="effect1_dropShadow_132_77"/>
<feBlend mode="normal" in="SourceGraphic" in2="effect1_dropShadow_132_77" result="shape"/>
</filter>
</defs>
</svg>
