<svg width="230" height="200" viewBox="0 0 230 200" fill="none" xmlns="http://www.w3.org/2000/svg">
<g filter="url(#filter0_d_132_84)">
<path d="M140.14 38.0166L55.8429 152.066C36.3921 170.262 4.60328 156.47 4.60328 129.835V38.0166H140.14Z" fill="#0091BF"/>
<path d="M25.3879 133.934V56.9339H58.6079C63.4479 56.9339 67.7379 58.0339 71.4779 60.2339C75.2913 62.4339 78.2979 65.4406 80.4979 69.2539C82.7713 73.0672 83.9079 77.3572 83.9079 82.1239C83.9079 87.1106 82.7713 91.5839 80.4979 95.5439C78.2979 99.4306 75.2913 102.511 71.4779 104.784C67.7379 107.057 63.4479 108.194 58.6079 108.194H44.0879V133.934H25.3879ZM43.7579 91.8039H55.9679C57.5813 91.8039 59.0479 91.4006 60.3679 90.5939C61.6879 89.7872 62.7513 88.6872 63.5579 87.2939C64.3646 85.9006 64.7679 84.2872 64.7679 82.4539C64.7679 80.5472 64.3646 78.9339 63.5579 77.6139C62.7513 76.2939 61.6879 75.2672 60.3679 74.5339C59.0479 73.8006 57.5813 73.4339 55.9679 73.4339H43.7579V91.8039Z" fill="#E0E0E0"/>
<path d="M66.5868 161.983L150.884 47.9339C170.335 29.7379 202.124 43.5302 202.124 70.1652L202.124 161.983L66.5868 161.983Z" fill="#545454"/>
<path d="M139.595 137.305V106.065L141.63 110.74L133.38 114.645L131.785 106.285L142.73 100.95H148.78V137.305H139.595ZM132.555 140V131.75H155.985V140H132.555ZM174.605 140.55C171.489 140.55 168.757 139.908 166.41 138.625C164.1 137.305 161.992 135.05 160.085 131.86L166.795 127.515C167.602 128.798 168.427 129.825 169.27 130.595C170.15 131.365 171.049 131.933 171.965 132.3C172.919 132.63 173.909 132.795 174.935 132.795C175.962 132.795 176.897 132.575 177.74 132.135C178.62 131.658 179.317 130.998 179.83 130.155C180.38 129.312 180.655 128.358 180.655 127.295C180.655 126.158 180.417 125.205 179.94 124.435C179.5 123.628 178.84 123.023 177.96 122.62C177.117 122.217 176.09 122.015 174.88 122.015C174.33 122.015 173.744 122.088 173.12 122.235C172.497 122.345 171.837 122.51 171.14 122.73C170.444 122.95 169.729 123.243 168.995 123.61L166.96 118.165L176.31 107.99L178.84 109.365L162.78 109.035V101.17H186.43L188.135 104.58L175.43 118.22L173.23 115.635C173.524 115.488 174 115.36 174.66 115.25C175.357 115.103 176.017 115.03 176.64 115.03C178.364 115.03 179.977 115.342 181.48 115.965C182.984 116.588 184.322 117.45 185.495 118.55C186.669 119.65 187.585 120.952 188.245 122.455C188.905 123.922 189.235 125.498 189.235 127.185C189.235 129.752 188.575 132.043 187.255 134.06C185.972 136.04 184.212 137.617 181.975 138.79C179.775 139.963 177.319 140.55 174.605 140.55Z" fill="#E3E3E3"/>
</g>
<defs>
<filter id="filter0_d_132_84" x="0.603271" y="0" width="232.793" height="208" filterUnits="userSpaceOnUse" color-interpolation-filters="sRGB">
<feFlood flood-opacity="0" result="BackgroundImageFix"/>
<feColorMatrix in="SourceAlpha" type="matrix" values="0 0 0 0 0 0 0 0 0 0 0 0 0 0 0 0 0 0 127 0" result="hardAlpha"/>
<feOffset dy="4"/>
<feGaussianBlur stdDeviation="2"/>
<feComposite in2="hardAlpha" operator="out"/>
<feColorMatrix type="matrix" values="0 0 0 0 0 0 0 0 0 0 0 0 0 0 0 0 0 0 0.25 0"/>
<feBlend mode="normal" in2="BackgroundImageFix" result="effect1_dropShadow_132_84"/>
<feBlend mode="normal" in="SourceGraphic" in2="effect1_dropShadow_132_84" result="shape"/>
</filter>
</defs>
</svg>
