<svg width="230" height="200" viewBox="0 0 230 200" fill="none" xmlns="http://www.w3.org/2000/svg">
<g filter="url(#filter0_d_132_98)">
<path d="M139.934 38.0166L55.6363 152.066C36.1855 170.262 4.39666 156.47 4.39666 129.835V38.0166H139.934Z" fill="#0E1C20"/>
<path d="M25.1813 133.934V56.9339H58.4013C63.2413 56.9339 67.5313 58.0339 71.2713 60.2339C75.0847 62.4339 78.0913 65.4406 80.2913 69.2539C82.5647 73.0672 83.7013 77.3572 83.7013 82.1239C83.7013 87.1106 82.5647 91.5839 80.2913 95.5439C78.0913 99.4306 75.0847 102.511 71.2713 104.784C67.5313 107.057 63.2413 108.194 58.4013 108.194H43.8813V133.934H25.1813ZM43.5513 91.8039H55.7613C57.3747 91.8039 58.8413 91.4006 60.1613 90.5939C61.4813 89.7872 62.5447 88.6872 63.3513 87.2939C64.158 85.9006 64.5613 84.2872 64.5613 82.4539C64.5613 80.5472 64.158 78.9339 63.3513 77.6139C62.5447 76.2939 61.4813 75.2672 60.1613 74.5339C58.8413 73.8006 57.3747 73.4339 55.7613 73.4339H43.5513V91.8039Z" fill="#E0E0E0"/>
<path d="M66.3801 161.983L150.678 47.9339C170.129 29.7379 201.917 43.5302 201.917 70.1652L201.917 161.983L66.3801 161.983Z" fill="#545454"/>
<path d="M137.428 137.305V106.065L139.463 110.74L131.213 114.645L129.618 106.285L140.563 100.95H146.613V137.305H137.428ZM130.388 140V131.75H153.818V140H130.388ZM175.848 140V108.87L180.853 108.98L166.938 126.03L165.618 124.38H191.138V132.08H161.438L157.698 124.875L177.333 101.17H184.868V140H175.848Z" fill="#E3E3E3"/>
</g>
<defs>
<filter id="filter0_d_132_98" x="0.396667" y="0" width="232.793" height="208" filterUnits="userSpaceOnUse" color-interpolation-filters="sRGB">
<feFlood flood-opacity="0" result="BackgroundImageFix"/>
<feColorMatrix in="SourceAlpha" type="matrix" values="0 0 0 0 0 0 0 0 0 0 0 0 0 0 0 0 0 0 127 0" result="hardAlpha"/>
<feOffset dy="4"/>
<feGaussianBlur stdDeviation="2"/>
<feComposite in2="hardAlpha" operator="out"/>
<feColorMatrix type="matrix" values="0 0 0 0 0 0 0 0 0 0 0 0 0 0 0 0 0 0 0.25 0"/>
<feBlend mode="normal" in2="BackgroundImageFix" result="effect1_dropShadow_132_98"/>
<feBlend mode="normal" in="SourceGraphic" in2="effect1_dropShadow_132_98" result="shape"/>
</filter>
</defs>
</svg>
