<svg width="229" height="200" viewBox="0 0 229 200" fill="none" xmlns="http://www.w3.org/2000/svg">
<g filter="url(#filter0_d_132_119)">
<path d="M139.727 38.0166L55.4297 152.066C35.9789 170.262 4.19006 156.47 4.19006 129.835V38.0166H139.727Z" fill="#C03535"/>
<path d="M24.9747 133.934V56.9339H58.1947C63.0347 56.9339 67.3247 58.0339 71.0647 60.2339C74.8781 62.4339 77.8847 65.4406 80.0847 69.2539C82.3581 73.0672 83.4947 77.3572 83.4947 82.1239C83.4947 87.1106 82.3581 91.5839 80.0847 95.5439C77.8847 99.4306 74.8781 102.511 71.0647 104.784C67.3247 107.057 63.0347 108.194 58.1947 108.194H43.6747V133.934H24.9747ZM43.3447 91.8039H55.5547C57.1681 91.8039 58.6347 91.4006 59.9547 90.5939C61.2747 89.7872 62.3381 88.6872 63.1447 87.2939C63.9514 85.9006 64.3547 84.2872 64.3547 82.4539C64.3547 80.5472 63.9514 78.9339 63.1447 77.6139C62.3381 76.2939 61.2747 75.2672 59.9547 74.5339C58.6347 73.8006 57.1681 73.4339 55.5547 73.4339H43.3447V91.8039Z" fill="#E0E0E0"/>
<path d="M66.1735 161.983L150.471 47.9339C169.922 29.7379 201.711 43.5302 201.711 70.1652L201.711 161.983L66.1735 161.983Z" fill="#545454"/>
<path d="M139.048 137.305V106.065L141.083 110.74L132.833 114.645L131.238 106.285L142.183 100.95H148.233V137.305H139.048ZM132.008 140V131.75H155.438V140H132.008ZM173.783 140.385C170.886 140.385 168.246 139.798 165.863 138.625C163.516 137.452 161.573 135.765 160.033 133.565L165.038 128.065C166.541 129.715 167.935 130.852 169.218 131.475C170.501 132.062 171.931 132.355 173.508 132.355C174.681 132.355 175.726 132.117 176.643 131.64C177.56 131.163 178.275 130.503 178.788 129.66C179.338 128.78 179.613 127.808 179.613 126.745C179.613 125.645 179.338 124.673 178.788 123.83C178.275 122.95 177.56 122.253 176.643 121.74C175.763 121.227 174.736 120.97 173.563 120.97C172.72 120.97 171.931 121.043 171.198 121.19C170.465 121.337 169.676 121.593 168.833 121.96C168.026 122.29 167.055 122.785 165.918 123.445L161.958 118.165L164.323 101.17H186.433V109.035H168.778L171.198 105.955L169.383 118.165L166.083 117.065C166.78 116.442 167.623 115.892 168.613 115.415C169.64 114.938 170.74 114.553 171.913 114.26C173.086 113.93 174.26 113.765 175.433 113.765C177.853 113.765 180.016 114.333 181.923 115.47C183.866 116.57 185.406 118.11 186.543 120.09C187.68 122.07 188.248 124.343 188.248 126.91C188.248 129.44 187.606 131.732 186.323 133.785C185.04 135.802 183.316 137.415 181.153 138.625C178.99 139.798 176.533 140.385 173.783 140.385Z" fill="#E3E3E3"/>
</g>
<defs>
<filter id="filter0_d_132_119" x="0.190063" y="0" width="232.793" height="208" filterUnits="userSpaceOnUse" color-interpolation-filters="sRGB">
<feFlood flood-opacity="0" result="BackgroundImageFix"/>
<feColorMatrix in="SourceAlpha" type="matrix" values="0 0 0 0 0 0 0 0 0 0 0 0 0 0 0 0 0 0 127 0" result="hardAlpha"/>
<feOffset dy="4"/>
<feGaussianBlur stdDeviation="2"/>
<feComposite in2="hardAlpha" operator="out"/>
<feColorMatrix type="matrix" values="0 0 0 0 0 0 0 0 0 0 0 0 0 0 0 0 0 0 0.25 0"/>
<feBlend mode="normal" in2="BackgroundImageFix" result="effect1_dropShadow_132_119"/>
<feBlend mode="normal" in="SourceGraphic" in2="effect1_dropShadow_132_119" result="shape"/>
</filter>
</defs>
</svg>
