<svg width="229" height="208" viewBox="0 0 229 208" fill="none" xmlns="http://www.w3.org/2000/svg">
<g filter="url(#filter0_d_137_2)">
<path d="M139.554 38.0165L55.2561 152.066V152.066C35.8053 170.262 4.01647 156.47 4.01647 129.835V38.0165H139.554Z" fill="#C41212"/>
<path d="M24.8011 133.934V56.9339H58.0211C62.8611 56.9339 67.1511 58.0339 70.8911 60.2339C74.7044 62.4339 77.7111 65.4405 79.9111 69.2539C82.1844 73.0672 83.3211 77.3572 83.3211 82.1239C83.3211 87.1105 82.1844 91.5839 79.9111 95.5439C77.7111 99.4305 74.7044 102.511 70.8911 104.784C67.1511 107.057 62.8611 108.194 58.0211 108.194H43.5011V133.934H24.8011ZM43.1711 91.8039H55.3811C56.9944 91.8039 58.4611 91.4005 59.7811 90.5939C61.1011 89.7872 62.1644 88.6872 62.9711 87.2939C63.7778 85.9005 64.1811 84.2872 64.1811 82.4539C64.1811 80.5472 63.7778 78.9339 62.9711 77.6139C62.1644 76.2939 61.1011 75.2672 59.7811 74.5339C58.4611 73.8005 56.9944 73.4339 55.3811 73.4339H43.1711V91.8039Z" fill="#E0E0E0"/>
<path d="M65.9999 161.983L150.297 47.9339V47.9339C169.748 29.7379 201.537 43.5302 201.537 70.1652L201.537 161.983L65.9999 161.983Z" fill="#1E1E1E"/>
<path d="M139.331 137.305V106.065L141.366 110.74L133.116 114.645L131.521 106.285L142.466 100.95H148.516V137.305H139.331ZM132.291 140V131.75H155.721V140H132.291ZM174.726 140C172.746 140 170.876 139.652 169.116 138.955C167.392 138.222 165.889 137.232 164.606 135.985C163.322 134.702 162.296 133.217 161.526 131.53C160.792 129.843 160.426 128.028 160.426 126.085C160.426 124.728 160.572 123.427 160.866 122.18C161.159 120.897 161.562 119.613 162.076 118.33C162.626 117.01 163.267 115.672 164.001 114.315C164.771 112.922 165.614 111.455 166.531 109.915L171.921 100.895H180.556L180.776 101.445L173.296 113.215C172.342 114.755 171.517 116.203 170.821 117.56C170.124 118.88 169.501 120.2 168.951 121.52C168.401 122.84 167.851 124.233 167.301 125.7L165.541 121.905C165.907 120.622 166.494 119.448 167.301 118.385C168.107 117.285 169.042 116.35 170.106 115.58C171.206 114.773 172.342 114.168 173.516 113.765C174.689 113.325 175.844 113.105 176.981 113.105C179.144 113.105 181.124 113.692 182.921 114.865C184.754 116.002 186.221 117.523 187.321 119.43C188.421 121.337 188.971 123.427 188.971 125.7C188.971 128.413 188.347 130.852 187.101 133.015C185.891 135.178 184.204 136.883 182.041 138.13C179.914 139.377 177.476 140 174.726 140ZM174.836 132.3C176.009 132.3 177.036 132.043 177.916 131.53C178.832 131.017 179.547 130.302 180.061 129.385C180.574 128.432 180.831 127.35 180.831 126.14C180.831 125.113 180.556 124.16 180.006 123.28C179.492 122.363 178.777 121.63 177.861 121.08C176.981 120.493 175.991 120.2 174.891 120.2C173.717 120.2 172.654 120.475 171.701 121.025C170.784 121.538 170.069 122.253 169.556 123.17C169.042 124.05 168.786 125.04 168.786 126.14C168.786 127.313 169.042 128.377 169.556 129.33C170.069 130.247 170.784 130.98 171.701 131.53C172.617 132.043 173.662 132.3 174.836 132.3Z" fill="#E3E3E3"/>
</g>
<defs>
<filter id="filter0_d_137_2" x="0.0164795" y="0" width="232.793" height="208" filterUnits="userSpaceOnUse" color-interpolation-filters="sRGB">
<feFlood flood-opacity="0" result="BackgroundImageFix"/>
<feColorMatrix in="SourceAlpha" type="matrix" values="0 0 0 0 0 0 0 0 0 0 0 0 0 0 0 0 0 0 127 0" result="hardAlpha"/>
<feOffset dy="4"/>
<feGaussianBlur stdDeviation="2"/>
<feComposite in2="hardAlpha" operator="out"/>
<feColorMatrix type="matrix" values="0 0 0 0 0 0 0 0 0 0 0 0 0 0 0 0 0 0 0.25 0"/>
<feBlend mode="normal" in2="BackgroundImageFix" result="effect1_dropShadow_137_2"/>
<feBlend mode="normal" in="SourceGraphic" in2="effect1_dropShadow_137_2" result="shape"/>
</filter>
</defs>
</svg>
