<svg width="230" height="200" viewBox="0 0 230 200" fill="none" xmlns="http://www.w3.org/2000/svg">
<g filter="url(#filter0_d_132_126)">
<path d="M140.14 38.0165L55.8429 152.066C36.3921 170.262 4.60328 156.47 4.60328 129.835V38.0165H140.14Z" fill="#C03535"/>
<path d="M25.3879 133.934V56.9339H58.6079C63.4479 56.9339 67.7379 58.0339 71.4779 60.2339C75.2913 62.4339 78.2979 65.4405 80.4979 69.2539C82.7713 73.0672 83.9079 77.3572 83.9079 82.1239C83.9079 87.1105 82.7713 91.5839 80.4979 95.5439C78.2979 99.4305 75.2913 102.511 71.4779 104.784C67.7379 107.057 63.4479 108.194 58.6079 108.194H44.0879V133.934H25.3879ZM43.7579 91.8039H55.9679C57.5813 91.8039 59.0479 91.4005 60.3679 90.5939C61.6879 89.7872 62.7513 88.6872 63.5579 87.2939C64.3646 85.9005 64.7679 84.2872 64.7679 82.4539C64.7679 80.5472 64.3646 78.9339 63.5579 77.6139C62.7513 76.2939 61.6879 75.2672 60.3679 74.5339C59.0479 73.8005 57.5813 73.4339 55.9679 73.4339H43.7579V91.8039Z" fill="#E0E0E0"/>
<path d="M66.5868 161.983L150.884 47.9339C170.335 29.7379 202.124 43.5302 202.124 70.1652L202.124 161.983L66.5868 161.983Z" fill="#545454"/>
<path d="M139.38 137.305V106.065L141.415 110.74L133.165 114.645L131.57 106.285L142.515 100.95H148.565V137.305H139.38ZM132.34 140V131.75H155.77V140H132.34ZM175.051 140.165C172.411 140.165 170.009 139.67 167.845 138.68C165.719 137.653 164.014 136.278 162.73 134.555C161.447 132.832 160.805 130.888 160.805 128.725C160.805 127.295 160.989 126.012 161.355 124.875C161.722 123.702 162.272 122.675 163.005 121.795C163.775 120.878 164.692 120.108 165.755 119.485C166.855 118.825 168.102 118.293 169.496 117.89L168.835 120.09C167.809 119.687 166.874 119.192 166.03 118.605C165.187 118.018 164.472 117.358 163.885 116.625C163.299 115.855 162.84 115.03 162.51 114.15C162.217 113.27 162.07 112.353 162.07 111.4C162.07 109.347 162.639 107.532 163.775 105.955C164.949 104.378 166.507 103.15 168.45 102.27C170.43 101.353 172.631 100.895 175.051 100.895C177.434 100.895 179.597 101.353 181.541 102.27C183.521 103.15 185.097 104.378 186.271 105.955C187.444 107.532 188.031 109.347 188.031 111.4C188.031 112.353 187.884 113.27 187.59 114.15C187.297 115.03 186.857 115.837 186.271 116.57C185.684 117.267 184.969 117.927 184.126 118.55C183.282 119.137 182.311 119.65 181.211 120.09L180.715 118.11C181.962 118.44 183.117 118.917 184.181 119.54C185.244 120.127 186.161 120.878 186.931 121.795C187.701 122.675 188.287 123.702 188.691 124.875C189.131 126.012 189.351 127.295 189.351 128.725C189.351 130.925 188.709 132.887 187.426 134.61C186.142 136.333 184.419 137.69 182.255 138.68C180.092 139.67 177.691 140.165 175.051 140.165ZM175.051 132.795C176.077 132.795 176.994 132.593 177.8 132.19C178.607 131.787 179.249 131.237 179.725 130.54C180.202 129.843 180.441 129.037 180.441 128.12C180.441 127.167 180.202 126.342 179.725 125.645C179.285 124.912 178.644 124.343 177.8 123.94C176.994 123.5 176.077 123.28 175.051 123.28C174.024 123.28 173.107 123.5 172.3 123.94C171.494 124.343 170.852 124.912 170.376 125.645C169.899 126.342 169.66 127.167 169.66 128.12C169.66 129 169.899 129.788 170.376 130.485C170.852 131.182 171.494 131.75 172.3 132.19C173.107 132.593 174.024 132.795 175.051 132.795ZM175.051 115.855C175.931 115.855 176.719 115.69 177.415 115.36C178.149 114.993 178.717 114.517 179.121 113.93C179.524 113.307 179.725 112.592 179.725 111.785C179.725 110.978 179.524 110.263 179.121 109.64C178.717 109.017 178.149 108.522 177.415 108.155C176.719 107.788 175.931 107.605 175.051 107.605C174.134 107.605 173.309 107.788 172.575 108.155C171.879 108.522 171.329 109.017 170.925 109.64C170.522 110.263 170.321 110.978 170.321 111.785C170.321 112.592 170.522 113.307 170.925 113.93C171.329 114.517 171.879 114.993 172.575 115.36C173.309 115.69 174.134 115.855 175.051 115.855Z" fill="#E3E3E3"/>
</g>
<defs>
<filter id="filter0_d_132_126" x="0.603271" y="0" width="232.793" height="208" filterUnits="userSpaceOnUse" color-interpolation-filters="sRGB">
<feFlood flood-opacity="0" result="BackgroundImageFix"/>
<feColorMatrix in="SourceAlpha" type="matrix" values="0 0 0 0 0 0 0 0 0 0 0 0 0 0 0 0 0 0 127 0" result="hardAlpha"/>
<feOffset dy="4"/>
<feGaussianBlur stdDeviation="2"/>
<feComposite in2="hardAlpha" operator="out"/>
<feColorMatrix type="matrix" values="0 0 0 0 0 0 0 0 0 0 0 0 0 0 0 0 0 0 0.25 0"/>
<feBlend mode="normal" in2="BackgroundImageFix" result="effect1_dropShadow_132_126"/>
<feBlend mode="normal" in="SourceGraphic" in2="effect1_dropShadow_132_126" result="shape"/>
</filter>
</defs>
</svg>
