<svg width="230" height="208" viewBox="0 0 230 208" fill="none" xmlns="http://www.w3.org/2000/svg">
<g filter="url(#filter0_d_137_9)">
<path d="M139.934 38.0165L55.6363 152.066V152.066C36.1855 170.262 4.39666 156.47 4.39666 129.835V38.0165H139.934Z" fill="#C41212"/>
<path d="M25.1813 133.934V56.9339H58.4013C63.2413 56.9339 67.5313 58.0339 71.2713 60.2339C75.0847 62.4339 78.0913 65.4405 80.2913 69.2539C82.5647 73.0672 83.7013 77.3572 83.7013 82.1239C83.7013 87.1105 82.5647 91.5839 80.2913 95.5439C78.0913 99.4305 75.0847 102.511 71.2713 104.784C67.5313 107.057 63.2413 108.194 58.4013 108.194H43.8813V133.934H25.1813ZM43.5513 91.8039H55.7613C57.3747 91.8039 58.8413 91.4005 60.1613 90.5939C61.4813 89.7872 62.5447 88.6872 63.3513 87.2939C64.158 85.9005 64.5613 84.2872 64.5613 82.4539C64.5613 80.5472 64.158 78.9339 63.3513 77.6139C62.5447 76.2939 61.4813 75.2672 60.1613 74.5339C58.8413 73.8005 57.3747 73.4339 55.7613 73.4339H43.5513V91.8039Z" fill="#E0E0E0"/>
<path d="M66.3801 161.983L150.678 47.9339V47.9339C170.129 29.7379 201.917 43.5302 201.917 70.1652L201.917 161.983L66.3801 161.983Z" fill="#1E1E1E"/>
<path d="M139.765 137.305V106.065L141.8 110.74L133.55 114.645L131.955 106.285L142.9 100.95H148.95V137.305H139.765ZM132.725 140V131.75H156.155V140H132.725ZM170.43 140L170.21 139.45L182.255 115.14L183.85 118.44C183.483 119.76 182.896 120.952 182.09 122.015C181.283 123.078 180.311 124.013 179.175 124.82C178.075 125.59 176.92 126.195 175.71 126.635C174.5 127.038 173.345 127.24 172.245 127.24C170.155 127.24 168.23 126.672 166.47 125.535C164.71 124.398 163.298 122.877 162.235 120.97C161.171 119.063 160.64 116.992 160.64 114.755C160.64 112.115 161.263 109.732 162.51 107.605C163.793 105.442 165.516 103.737 167.68 102.49C169.843 101.207 172.281 100.565 174.995 100.565C176.975 100.565 178.826 100.913 180.55 101.61C182.273 102.307 183.776 103.278 185.06 104.525C186.38 105.735 187.406 107.147 188.14 108.76C188.873 110.373 189.24 112.078 189.24 113.875C189.24 115.195 189.13 116.497 188.91 117.78C188.69 119.027 188.341 120.31 187.865 121.63C187.388 122.95 186.82 124.325 186.16 125.755C185.536 127.185 184.803 128.743 183.96 130.43L179.12 140H170.43ZM174.5 119.87C175.636 119.87 176.645 119.613 177.525 119.1C178.405 118.587 179.083 117.908 179.56 117.065C180.073 116.185 180.33 115.213 180.33 114.15C180.33 113.013 180.073 112.005 179.56 111.125C179.083 110.208 178.405 109.493 177.525 108.98C176.681 108.467 175.691 108.21 174.555 108.21C173.455 108.21 172.483 108.467 171.64 108.98C170.833 109.457 170.173 110.153 169.66 111.07C169.183 111.95 168.945 112.977 168.945 114.15C168.945 115.14 169.183 116.075 169.66 116.955C170.173 117.798 170.851 118.495 171.695 119.045C172.538 119.595 173.473 119.87 174.5 119.87Z" fill="#E3E3E3"/>
</g>
<defs>
<filter id="filter0_d_137_9" x="0.396652" y="0" width="232.793" height="208" filterUnits="userSpaceOnUse" color-interpolation-filters="sRGB">
<feFlood flood-opacity="0" result="BackgroundImageFix"/>
<feColorMatrix in="SourceAlpha" type="matrix" values="0 0 0 0 0 0 0 0 0 0 0 0 0 0 0 0 0 0 127 0" result="hardAlpha"/>
<feOffset dy="4"/>
<feGaussianBlur stdDeviation="2"/>
<feComposite in2="hardAlpha" operator="out"/>
<feColorMatrix type="matrix" values="0 0 0 0 0 0 0 0 0 0 0 0 0 0 0 0 0 0 0.25 0"/>
<feBlend mode="normal" in2="BackgroundImageFix" result="effect1_dropShadow_137_9"/>
<feBlend mode="normal" in="SourceGraphic" in2="effect1_dropShadow_137_9" result="shape"/>
</filter>
</defs>
</svg>
