<svg width="230" height="208" viewBox="0 0 230 208" fill="none" xmlns="http://www.w3.org/2000/svg">
<g filter="url(#filter0_d_140_52)">
<path d="M140.331 38.0165L56.033 152.066V152.066C36.5822 170.262 4.79339 156.47 4.79339 129.835V38.0165H140.331Z" fill="#2F2F2F"/>
<path d="M25.578 133.934V56.9339H58.7981C63.6381 56.9339 67.9281 58.0339 71.6681 60.2339C75.4814 62.4339 78.4881 65.4405 80.6881 69.2539C82.9614 73.0672 84.098 77.3572 84.098 82.1239C84.098 87.1105 82.9614 91.5839 80.6881 95.5439C78.4881 99.4305 75.4814 102.511 71.6681 104.784C67.9281 107.057 63.6381 108.194 58.7981 108.194H44.2781V133.934H25.578ZM43.9481 91.8039H56.1581C57.7714 91.8039 59.238 91.4005 60.5581 90.5939C61.8781 89.7872 62.9414 88.6872 63.7481 87.2939C64.5547 85.9005 64.958 84.2872 64.958 82.4539C64.958 80.5472 64.5547 78.9339 63.7481 77.6139C62.9414 76.2939 61.8781 75.2672 60.5581 74.5339C59.238 73.8005 57.7714 73.4339 56.1581 73.4339H43.9481V91.8039Z" fill="#E0E0E0"/>
<path d="M66.7769 161.983L151.074 47.9339V47.9339C170.525 29.7379 202.314 43.5302 202.314 70.1652L202.314 161.983L66.7769 161.983Z" fill="#6CD3BF"/>
<path d="M144.045 142.017L140.745 133.817L161.145 111.517C162.278 110.25 163.511 108.817 164.845 107.217C166.178 105.617 167.478 103.983 168.745 102.317C170.011 100.583 171.011 98.9165 171.745 97.3165C172.545 95.7165 172.945 94.2499 172.945 92.9165C172.945 91.5832 172.645 90.4165 172.045 89.4165C171.445 88.4165 170.578 87.6499 169.445 87.1165C168.311 86.5165 166.878 86.2165 165.145 86.2165C163.611 86.2165 162.145 86.6165 160.745 87.4165C159.345 88.1499 158.011 89.3165 156.745 90.9165C155.545 92.5165 154.411 94.4832 153.345 96.8165L140.745 90.0165C142.145 86.1499 144.111 82.7499 146.645 79.8165C149.245 76.8165 152.278 74.5165 155.745 72.9165C159.211 71.2499 162.911 70.4165 166.845 70.4165C170.978 70.4832 174.711 71.3832 178.045 73.1165C181.378 74.7832 184.011 77.1499 185.945 80.2165C187.945 83.2165 188.945 86.7499 188.945 90.8165C188.945 92.2165 188.778 93.6832 188.445 95.2165C188.111 96.7499 187.611 98.3499 186.945 100.017C186.278 101.617 185.378 103.35 184.245 105.217C183.178 107.017 181.878 108.917 180.345 110.917C178.811 112.917 177.011 115.05 174.945 117.317L159.045 134.617L157.045 127.017H192.045V142.017H144.045Z" fill="#262626"/>
</g>
<defs>
<filter id="filter0_d_140_52" x="0.793388" y="0" width="232.793" height="208" filterUnits="userSpaceOnUse" color-interpolation-filters="sRGB">
<feFlood flood-opacity="0" result="BackgroundImageFix"/>
<feColorMatrix in="SourceAlpha" type="matrix" values="0 0 0 0 0 0 0 0 0 0 0 0 0 0 0 0 0 0 127 0" result="hardAlpha"/>
<feOffset dy="4"/>
<feGaussianBlur stdDeviation="2"/>
<feComposite in2="hardAlpha" operator="out"/>
<feColorMatrix type="matrix" values="0 0 0 0 0 0 0 0 0 0 0 0 0 0 0 0 0 0 0.25 0"/>
<feBlend mode="normal" in2="BackgroundImageFix" result="effect1_dropShadow_140_52"/>
<feBlend mode="normal" in="SourceGraphic" in2="effect1_dropShadow_140_52" result="shape"/>
</filter>
</defs>
</svg>
