<svg width="230" height="200" viewBox="0 0 230 200" fill="none" xmlns="http://www.w3.org/2000/svg">
<g filter="url(#filter0_d_131_97)">
<path d="M140.347 38.0165L56.0495 152.066C36.5987 170.262 4.80989 156.47 4.80989 129.835V38.0165H140.347Z" fill="#1E2F50"/>
<path d="M25.5945 133.934V56.9339H58.8145C63.6545 56.9339 67.9445 58.0339 71.6845 60.2339C75.4979 62.4339 78.5045 65.4406 80.7045 69.2539C82.9779 73.0672 84.1145 77.3572 84.1145 82.1239C84.1145 87.1106 82.9779 91.5839 80.7045 95.5439C78.5045 99.4306 75.4979 102.511 71.6845 104.784C67.9445 107.057 63.6545 108.194 58.8145 108.194H44.2945V133.934H25.5945ZM43.9645 91.8039H56.1745C57.7879 91.8039 59.2545 91.4006 60.5745 90.5939C61.8945 89.7872 62.9579 88.6872 63.7645 87.2939C64.5712 85.9006 64.9745 84.2872 64.9745 82.4539C64.9745 80.5472 64.5712 78.9339 63.7645 77.6139C62.9579 76.2939 61.8945 75.2672 60.5745 74.5339C59.2545 73.8006 57.7879 73.4339 56.1745 73.4339H43.9645V91.8039Z" fill="#E0E0E0"/>
<path d="M66.7934 161.983L151.091 47.9339C170.542 29.7379 202.331 43.5302 202.331 70.1652L202.331 161.983L66.7934 161.983Z" fill="#E13030"/>
<path d="M144.061 142.017L140.761 133.817L161.161 111.517C162.294 110.25 163.528 108.817 164.861 107.217C166.194 105.617 167.494 103.983 168.761 102.317C170.028 100.583 171.028 98.9165 171.761 97.3165C172.561 95.7165 172.961 94.2499 172.961 92.9165C172.961 91.5832 172.661 90.4165 172.061 89.4165C171.461 88.4165 170.594 87.6499 169.461 87.1165C168.328 86.5165 166.894 86.2165 165.161 86.2165C163.628 86.2165 162.161 86.6165 160.761 87.4165C159.361 88.1499 158.028 89.3165 156.761 90.9165C155.561 92.5165 154.428 94.4832 153.361 96.8165L140.761 90.0165C142.161 86.1499 144.128 82.7499 146.661 79.8165C149.261 76.8165 152.294 74.5165 155.761 72.9165C159.228 71.2499 162.928 70.4165 166.861 70.4165C170.994 70.4832 174.728 71.3832 178.061 73.1165C181.394 74.7832 184.028 77.1499 185.961 80.2165C187.961 83.2165 188.961 86.7499 188.961 90.8165C188.961 92.2165 188.794 93.6832 188.461 95.2165C188.128 96.7499 187.628 98.3499 186.961 100.017C186.294 101.617 185.394 103.35 184.261 105.217C183.194 107.017 181.894 108.917 180.361 110.917C178.828 112.917 177.028 115.05 174.961 117.317L159.061 134.617L157.061 127.017H192.061V142.017H144.061Z" fill="#DADADA"/>
</g>
<defs>
<filter id="filter0_d_131_97" x="0.809875" y="0" width="232.793" height="208" filterUnits="userSpaceOnUse" color-interpolation-filters="sRGB">
<feFlood flood-opacity="0" result="BackgroundImageFix"/>
<feColorMatrix in="SourceAlpha" type="matrix" values="0 0 0 0 0 0 0 0 0 0 0 0 0 0 0 0 0 0 127 0" result="hardAlpha"/>
<feOffset dy="4"/>
<feGaussianBlur stdDeviation="2"/>
<feComposite in2="hardAlpha" operator="out"/>
<feColorMatrix type="matrix" values="0 0 0 0 0 0 0 0 0 0 0 0 0 0 0 0 0 0 0.25 0"/>
<feBlend mode="normal" in2="BackgroundImageFix" result="effect1_dropShadow_131_97"/>
<feBlend mode="normal" in="SourceGraphic" in2="effect1_dropShadow_131_97" result="shape"/>
</filter>
</defs>
</svg>
