<svg width="229" height="208" viewBox="0 0 229 208" fill="none" xmlns="http://www.w3.org/2000/svg">
<g filter="url(#filter0_di_137_16)">
<path d="M139.727 38.0165L55.4297 152.066V152.066C35.9789 170.262 4.19005 156.47 4.19005 129.835V38.0165H139.727Z" fill="#0E1C20"/>
<path d="M24.9747 133.934V56.9339H58.1947C63.0347 56.9339 67.3247 58.0339 71.0647 60.2339C74.8781 62.4339 77.8847 65.4405 80.0847 69.2539C82.3581 73.0672 83.4947 77.3572 83.4947 82.1239C83.4947 87.1105 82.3581 91.5839 80.0847 95.5439C77.8847 99.4305 74.8781 102.511 71.0647 104.784C67.3247 107.057 63.0347 108.194 58.1947 108.194H43.6747V133.934H24.9747ZM43.3447 91.8039H55.5547C57.1681 91.8039 58.6347 91.4005 59.9547 90.5939C61.2747 89.7872 62.3381 88.6872 63.1447 87.2939C63.9514 85.9005 64.3547 84.2872 64.3547 82.4539C64.3547 80.5472 63.9514 78.9339 63.1447 77.6139C62.3381 76.2939 61.2747 75.2672 59.9547 74.5339C58.6347 73.8005 57.1681 73.4339 55.5547 73.4339H43.3447V91.8039Z" fill="#E0E0E0"/>
<path d="M66.1735 161.983L150.471 47.9339V47.9339C169.922 29.7379 201.711 43.5302 201.711 70.1652L201.711 161.983L66.1735 161.983Z" fill="#545454"/>
<path d="M128.862 140L127.047 135.49L138.267 123.225C138.89 122.528 139.568 121.74 140.302 120.86C141.035 119.98 141.75 119.082 142.447 118.165C143.143 117.212 143.693 116.295 144.097 115.415C144.537 114.535 144.757 113.728 144.757 112.995C144.757 112.262 144.592 111.62 144.262 111.07C143.932 110.52 143.455 110.098 142.832 109.805C142.208 109.475 141.42 109.31 140.467 109.31C139.623 109.31 138.817 109.53 138.047 109.97C137.277 110.373 136.543 111.015 135.847 111.895C135.187 112.775 134.563 113.857 133.977 115.14L127.047 111.4C127.817 109.273 128.898 107.403 130.292 105.79C131.722 104.14 133.39 102.875 135.297 101.995C137.203 101.078 139.238 100.62 141.402 100.62C143.675 100.657 145.728 101.152 147.562 102.105C149.395 103.022 150.843 104.323 151.907 106.01C153.007 107.66 153.557 109.603 153.557 111.84C153.557 112.61 153.465 113.417 153.282 114.26C153.098 115.103 152.823 115.983 152.457 116.9C152.09 117.78 151.595 118.733 150.972 119.76C150.385 120.75 149.67 121.795 148.827 122.895C147.983 123.995 146.993 125.168 145.857 126.415L137.112 135.93L136.012 131.75H155.262V140H128.862ZM174.283 140.55C170.837 140.55 167.885 139.762 165.428 138.185C163.008 136.608 161.157 134.353 159.873 131.42C158.59 128.45 157.948 124.893 157.948 120.75C157.948 116.607 158.59 113.068 159.873 110.135C161.157 107.165 163.008 104.892 165.428 103.315C167.885 101.738 170.837 100.95 174.283 100.95C177.73 100.95 180.682 101.738 183.138 103.315C185.595 104.892 187.465 107.165 188.748 110.135C190.032 113.068 190.673 116.607 190.673 120.75C190.673 124.893 190.032 128.45 188.748 131.42C187.465 134.353 185.595 136.608 183.138 138.185C180.682 139.762 177.73 140.55 174.283 140.55ZM174.283 132.63C176.667 132.63 178.5 131.603 179.783 129.55C181.103 127.497 181.763 124.563 181.763 120.75C181.763 116.827 181.103 113.82 179.783 111.73C178.5 109.603 176.667 108.54 174.283 108.54C171.9 108.54 170.048 109.603 168.728 111.73C167.445 113.82 166.803 116.827 166.803 120.75C166.803 124.563 167.445 127.497 168.728 129.55C170.048 131.603 171.9 132.63 174.283 132.63Z" fill="#E3E3E3"/>
</g>
<defs>
<filter id="filter0_di_137_16" x="0.190063" y="0" width="232.793" height="208" filterUnits="userSpaceOnUse" color-interpolation-filters="sRGB">
<feFlood flood-opacity="0" result="BackgroundImageFix"/>
<feColorMatrix in="SourceAlpha" type="matrix" values="0 0 0 0 0 0 0 0 0 0 0 0 0 0 0 0 0 0 127 0" result="hardAlpha"/>
<feOffset dy="4"/>
<feGaussianBlur stdDeviation="2"/>
<feComposite in2="hardAlpha" operator="out"/>
<feColorMatrix type="matrix" values="0 0 0 0 0 0 0 0 0 0 0 0 0 0 0 0 0 0 0.25 0"/>
<feBlend mode="normal" in2="BackgroundImageFix" result="effect1_dropShadow_137_16"/>
<feBlend mode="normal" in="SourceGraphic" in2="effect1_dropShadow_137_16" result="shape"/>
<feColorMatrix in="SourceAlpha" type="matrix" values="0 0 0 0 0 0 0 0 0 0 0 0 0 0 0 0 0 0 127 0" result="hardAlpha"/>
<feOffset dy="4"/>
<feGaussianBlur stdDeviation="2"/>
<feComposite in2="hardAlpha" operator="arithmetic" k2="-1" k3="1"/>
<feColorMatrix type="matrix" values="0 0 0 0 0 0 0 0 0 0 0 0 0 0 0 0 0 0 0.25 0"/>
<feBlend mode="normal" in2="shape" result="effect2_innerShadow_137_16"/>
</filter>
</defs>
</svg>
