<svg width="230" height="200" viewBox="0 0 230 200" fill="none" xmlns="http://www.w3.org/2000/svg">
<g filter="url(#filter0_d_132_91)">
<path d="M140.244 38.0165L55.9463 152.066C36.4954 170.262 4.70661 156.47 4.70661 129.835V38.0165H140.244Z" fill="#0091BF"/>
<path d="M25.4913 133.934V56.9339H58.7113C63.5513 56.9339 67.8413 58.0339 71.5813 60.2339C75.3946 62.4339 78.4013 65.4405 80.6013 69.2539C82.8746 73.0672 84.0113 77.3572 84.0113 82.1239C84.0113 87.1105 82.8746 91.5839 80.6013 95.5439C78.4013 99.4305 75.3946 102.511 71.5813 104.784C67.8413 107.057 63.5513 108.194 58.7113 108.194H44.1913V133.934H25.4913ZM43.8613 91.8039H56.0713C57.6846 91.8039 59.1513 91.4005 60.4713 90.5939C61.7913 89.7872 62.8546 88.6872 63.6613 87.2939C64.4679 85.9005 64.8713 84.2872 64.8713 82.4539C64.8713 80.5472 64.4679 78.9339 63.6613 77.6139C62.8546 76.2939 61.7913 75.2672 60.4713 74.5339C59.1513 73.8005 57.6846 73.4339 56.0713 73.4339H43.8613V91.8039Z" fill="#E0E0E0"/>
<path d="M66.6901 161.983L150.988 47.9339C170.438 29.7379 202.227 43.5302 202.227 70.1652L202.227 161.983L66.6901 161.983Z" fill="#545454"/>
<path d="M132.52 140L130.705 135.49L141.925 123.225C142.549 122.528 143.227 121.74 143.96 120.86C144.694 119.98 145.409 119.082 146.105 118.165C146.802 117.212 147.352 116.295 147.755 115.415C148.195 114.535 148.415 113.728 148.415 112.995C148.415 112.262 148.25 111.62 147.92 111.07C147.59 110.52 147.114 110.098 146.49 109.805C145.867 109.475 145.079 109.31 144.125 109.31C143.282 109.31 142.475 109.53 141.705 109.97C140.935 110.373 140.202 111.015 139.505 111.895C138.845 112.775 138.222 113.857 137.635 115.14L130.705 111.4C131.475 109.273 132.557 107.403 133.95 105.79C135.38 104.14 137.049 102.875 138.955 101.995C140.862 101.078 142.897 100.62 145.06 100.62C147.334 100.657 149.387 101.152 151.22 102.105C153.054 103.022 154.502 104.323 155.565 106.01C156.665 107.66 157.215 109.603 157.215 111.84C157.215 112.61 157.124 113.417 156.94 114.26C156.757 115.103 156.482 115.983 156.115 116.9C155.749 117.78 155.254 118.733 154.63 119.76C154.044 120.75 153.329 121.795 152.485 122.895C151.642 123.995 150.652 125.168 149.515 126.415L140.77 135.93L139.67 131.75H158.92V140H132.52ZM171.012 137.305V106.065L173.047 110.74L164.797 114.645L163.202 106.285L174.147 100.95H180.197V137.305H171.012ZM163.972 140V131.75H187.402V140H163.972Z" fill="#E3E3E3"/>
</g>
<defs>
<filter id="filter0_d_132_91" x="0.706604" y="0" width="232.793" height="208" filterUnits="userSpaceOnUse" color-interpolation-filters="sRGB">
<feFlood flood-opacity="0" result="BackgroundImageFix"/>
<feColorMatrix in="SourceAlpha" type="matrix" values="0 0 0 0 0 0 0 0 0 0 0 0 0 0 0 0 0 0 127 0" result="hardAlpha"/>
<feOffset dy="4"/>
<feGaussianBlur stdDeviation="2"/>
<feComposite in2="hardAlpha" operator="out"/>
<feColorMatrix type="matrix" values="0 0 0 0 0 0 0 0 0 0 0 0 0 0 0 0 0 0 0.25 0"/>
<feBlend mode="normal" in2="BackgroundImageFix" result="effect1_dropShadow_132_91"/>
<feBlend mode="normal" in="SourceGraphic" in2="effect1_dropShadow_132_91" result="shape"/>
</filter>
</defs>
</svg>
