<svg width="230" height="208" viewBox="0 0 230 208" fill="none" xmlns="http://www.w3.org/2000/svg">
<g filter="url(#filter0_di_137_23)">
<path d="M140.037 38.0165L55.7397 152.066V152.066C36.2888 170.262 4.5 156.47 4.5 129.835V38.0165H140.037Z" fill="#0E1C20"/>
<path d="M25.2846 133.934V56.9339H58.5047C63.3447 56.9339 67.6347 58.0339 71.3747 60.2339C75.188 62.4339 78.1947 65.4405 80.3947 69.2539C82.668 73.0672 83.8046 77.3572 83.8046 82.1239C83.8046 87.1105 82.668 91.5839 80.3947 95.5439C78.1947 99.4305 75.188 102.511 71.3747 104.784C67.6347 107.057 63.3447 108.194 58.5047 108.194H43.9847V133.934H25.2846ZM43.6547 91.8039H55.8647C57.478 91.8039 58.9447 91.4005 60.2647 90.5939C61.5847 89.7872 62.648 88.6872 63.4547 87.2939C64.2613 85.9005 64.6646 84.2872 64.6646 82.4539C64.6646 80.5472 64.2613 78.9339 63.4547 77.6139C62.648 76.2939 61.5847 75.2672 60.2647 74.5339C58.9447 73.8005 57.478 73.4339 55.8647 73.4339H43.6547V91.8039Z" fill="#E0E0E0"/>
<path d="M66.4835 161.983L150.781 47.9339V47.9339C170.232 29.7379 202.021 43.5302 202.021 70.1652L202.021 161.983L66.4835 161.983Z" fill="#545454"/>
<path d="M132.663 140L130.848 135.49L142.068 123.225C142.691 122.528 143.369 121.74 144.103 120.86C144.836 119.98 145.551 119.082 146.248 118.165C146.944 117.212 147.494 116.295 147.898 115.415C148.338 114.535 148.558 113.728 148.558 112.995C148.558 112.262 148.393 111.62 148.063 111.07C147.733 110.52 147.256 110.098 146.633 109.805C146.009 109.475 145.221 109.31 144.268 109.31C143.424 109.31 142.618 109.53 141.848 109.97C141.078 110.373 140.344 111.015 139.648 111.895C138.988 112.775 138.364 113.857 137.778 115.14L130.848 111.4C131.618 109.273 132.699 107.403 134.093 105.79C135.523 104.14 137.191 102.875 139.098 101.995C141.004 101.078 143.039 100.62 145.203 100.62C147.476 100.657 149.529 101.152 151.363 102.105C153.196 103.022 154.644 104.323 155.708 106.01C156.808 107.66 157.358 109.603 157.358 111.84C157.358 112.61 157.266 113.417 157.083 114.26C156.899 115.103 156.624 115.983 156.258 116.9C155.891 117.78 155.396 118.733 154.773 119.76C154.186 120.75 153.471 121.795 152.628 122.895C151.784 123.995 150.794 125.168 149.658 126.415L140.913 135.93L139.813 131.75H159.063V140H132.663ZM162.795 140L160.98 135.49L172.2 123.225C172.823 122.528 173.501 121.74 174.235 120.86C174.968 119.98 175.683 119.082 176.38 118.165C177.076 117.212 177.626 116.295 178.03 115.415C178.47 114.535 178.69 113.728 178.69 112.995C178.69 112.262 178.525 111.62 178.195 111.07C177.865 110.52 177.388 110.098 176.765 109.805C176.141 109.475 175.353 109.31 174.4 109.31C173.556 109.31 172.75 109.53 171.98 109.97C171.21 110.373 170.476 111.015 169.78 111.895C169.12 112.775 168.496 113.857 167.91 115.14L160.98 111.4C161.75 109.273 162.831 107.403 164.225 105.79C165.655 104.14 167.323 102.875 169.23 101.995C171.136 101.078 173.171 100.62 175.335 100.62C177.608 100.657 179.661 101.152 181.495 102.105C183.328 103.022 184.776 104.323 185.84 106.01C186.94 107.66 187.49 109.603 187.49 111.84C187.49 112.61 187.398 113.417 187.215 114.26C187.031 115.103 186.756 115.983 186.39 116.9C186.023 117.78 185.528 118.733 184.905 119.76C184.318 120.75 183.603 121.795 182.76 122.895C181.916 123.995 180.926 125.168 179.79 126.415L171.045 135.93L169.945 131.75H189.195V140H162.795Z" fill="#E3E3E3"/>
</g>
<defs>
<filter id="filter0_di_137_23" x="0.5" y="0" width="232.793" height="208" filterUnits="userSpaceOnUse" color-interpolation-filters="sRGB">
<feFlood flood-opacity="0" result="BackgroundImageFix"/>
<feColorMatrix in="SourceAlpha" type="matrix" values="0 0 0 0 0 0 0 0 0 0 0 0 0 0 0 0 0 0 127 0" result="hardAlpha"/>
<feOffset dy="4"/>
<feGaussianBlur stdDeviation="2"/>
<feComposite in2="hardAlpha" operator="out"/>
<feColorMatrix type="matrix" values="0 0 0 0 0 0 0 0 0 0 0 0 0 0 0 0 0 0 0.25 0"/>
<feBlend mode="normal" in2="BackgroundImageFix" result="effect1_dropShadow_137_23"/>
<feBlend mode="normal" in="SourceGraphic" in2="effect1_dropShadow_137_23" result="shape"/>
<feColorMatrix in="SourceAlpha" type="matrix" values="0 0 0 0 0 0 0 0 0 0 0 0 0 0 0 0 0 0 127 0" result="hardAlpha"/>
<feOffset dy="4"/>
<feGaussianBlur stdDeviation="2"/>
<feComposite in2="hardAlpha" operator="arithmetic" k2="-1" k3="1"/>
<feColorMatrix type="matrix" values="0 0 0 0 0 0 0 0 0 0 0 0 0 0 0 0 0 0 0.25 0"/>
<feBlend mode="normal" in2="shape" result="effect2_innerShadow_137_23"/>
</filter>
</defs>
</svg>
