<svg width="230" height="208" viewBox="0 0 230 208" fill="none" xmlns="http://www.w3.org/2000/svg">
<g filter="url(#filter0_d_140_59)">
<path d="M140.124 38.0165L55.8264 152.066V152.066C36.3756 170.262 4.58678 156.47 4.58678 129.835V38.0165H140.124Z" fill="#272727"/>
<path d="M25.3714 133.934V56.9339H58.5914C63.4314 56.9339 67.7214 58.0339 71.4614 60.2339C75.2748 62.4339 78.2814 65.4405 80.4814 69.2539C82.7548 73.0672 83.8914 77.3572 83.8914 82.1239C83.8914 87.1105 82.7548 91.5839 80.4814 95.5439C78.2814 99.4305 75.2748 102.511 71.4614 104.784C67.7214 107.057 63.4314 108.194 58.5914 108.194H44.0714V133.934H25.3714ZM43.7414 91.8039H55.9514C57.5648 91.8039 59.0314 91.4005 60.3514 90.5939C61.6714 89.7872 62.7348 88.6872 63.5414 87.2939C64.3481 85.9005 64.7514 84.2872 64.7514 82.4539C64.7514 80.5472 64.3481 78.9339 63.5414 77.6139C62.7348 76.2939 61.6714 75.2672 60.3514 74.5339C59.0314 73.8005 57.5648 73.4339 55.9514 73.4339H43.7414V91.8039Z" fill="#E0E0E0"/>
<path d="M66.5703 161.983L150.868 47.9339V47.9339C170.319 29.7379 202.107 43.5302 202.107 70.1652L202.107 161.983L66.5703 161.983Z" fill="#DE0000"/>
<path d="M164.49 143.017C158.823 143.017 153.856 141.85 149.59 139.517C145.39 137.117 141.556 133.017 138.09 127.217L150.29 119.317C151.756 121.65 153.256 123.517 154.79 124.917C156.39 126.317 158.023 127.35 159.69 128.017C161.423 128.617 163.223 128.917 165.09 128.917C166.956 128.917 168.656 128.517 170.19 127.717C171.79 126.85 173.056 125.65 173.99 124.117C174.99 122.583 175.49 120.85 175.49 118.917C175.49 116.85 175.056 115.117 174.19 113.717C173.39 112.25 172.19 111.15 170.59 110.417C169.056 109.683 167.19 109.317 164.99 109.317C163.99 109.317 162.923 109.45 161.79 109.717C160.656 109.917 159.456 110.217 158.19 110.617C156.923 111.017 155.623 111.55 154.29 112.217L150.59 102.317L167.59 83.8165L172.19 86.3165L142.99 85.7165V71.4165H185.99L189.09 77.6165L165.99 102.417L161.99 97.7165C162.523 97.4499 163.39 97.2165 164.59 97.0165C165.856 96.7499 167.056 96.6165 168.19 96.6165C171.323 96.6165 174.256 97.1832 176.99 98.3165C179.723 99.4499 182.156 101.017 184.29 103.017C186.423 105.017 188.09 107.383 189.29 110.117C190.49 112.783 191.09 115.65 191.09 118.717C191.09 123.383 189.89 127.55 187.49 131.217C185.156 134.817 181.956 137.683 177.89 139.817C173.89 141.95 169.423 143.017 164.49 143.017Z" fill="#E3E3E3"/>
</g>
<defs>
<filter id="filter0_d_140_59" x="0.586792" y="0" width="232.793" height="208" filterUnits="userSpaceOnUse" color-interpolation-filters="sRGB">
<feFlood flood-opacity="0" result="BackgroundImageFix"/>
<feColorMatrix in="SourceAlpha" type="matrix" values="0 0 0 0 0 0 0 0 0 0 0 0 0 0 0 0 0 0 127 0" result="hardAlpha"/>
<feOffset dy="4"/>
<feGaussianBlur stdDeviation="2"/>
<feComposite in2="hardAlpha" operator="out"/>
<feColorMatrix type="matrix" values="0 0 0 0 0 0 0 0 0 0 0 0 0 0 0 0 0 0 0.25 0"/>
<feBlend mode="normal" in2="BackgroundImageFix" result="effect1_dropShadow_140_59"/>
<feBlend mode="normal" in="SourceGraphic" in2="effect1_dropShadow_140_59" result="shape"/>
</filter>
</defs>
</svg>
