<svg width="230" height="200" viewBox="0 0 230 200" fill="none" xmlns="http://www.w3.org/2000/svg">
<g filter="url(#filter0_d_131_90)">
<path d="M140.14 38.0165L55.8429 152.066C36.3921 170.262 4.60328 156.47 4.60328 129.835V38.0165H140.14Z" fill="#2F2F2F"/>
<path d="M25.3879 133.934V56.9339H58.6079C63.4479 56.9339 67.7379 58.0339 71.4779 60.2339C75.2913 62.4339 78.2979 65.4406 80.4979 69.2539C82.7713 73.0672 83.9079 77.3572 83.9079 82.1239C83.9079 87.1106 82.7713 91.5839 80.4979 95.5439C78.2979 99.4306 75.2913 102.511 71.4779 104.784C67.7379 107.057 63.4479 108.194 58.6079 108.194H44.0879V133.934H25.3879ZM43.7579 91.8039H55.9679C57.5813 91.8039 59.0479 91.4006 60.3679 90.5939C61.6879 89.7872 62.7513 88.6872 63.5579 87.2939C64.3646 85.9006 64.7679 84.2872 64.7679 82.4539C64.7679 80.5472 64.3646 78.9339 63.5579 77.6139C62.7513 76.2939 61.6879 75.2672 60.3679 74.5339C59.0479 73.8006 57.5813 73.4339 55.9679 73.4339H43.7579V91.8039Z" fill="#E0E0E0"/>
<path d="M66.5868 161.983L150.884 47.9339C170.335 29.7379 202.124 43.5302 202.124 70.1652L202.124 161.983L66.5868 161.983Z" fill="#6CD3BF"/>
<path d="M164.506 143.017C158.839 143.017 153.873 141.85 149.606 139.517C145.406 137.117 141.573 133.017 138.106 127.217L150.306 119.317C151.773 121.65 153.273 123.517 154.806 124.917C156.406 126.317 158.039 127.35 159.706 128.017C161.439 128.617 163.239 128.917 165.106 128.917C166.973 128.917 168.673 128.517 170.206 127.717C171.806 126.85 173.073 125.65 174.006 124.117C175.006 122.583 175.506 120.85 175.506 118.917C175.506 116.85 175.073 115.117 174.206 113.717C173.406 112.25 172.206 111.15 170.606 110.417C169.073 109.683 167.206 109.317 165.006 109.317C164.006 109.317 162.939 109.45 161.806 109.717C160.673 109.917 159.473 110.217 158.206 110.617C156.939 111.017 155.639 111.55 154.306 112.217L150.606 102.317L167.606 83.8165L172.206 86.3165L143.006 85.7165V71.4165H186.006L189.106 77.6165L166.006 102.417L162.006 97.7165C162.539 97.4499 163.406 97.2165 164.606 97.0165C165.873 96.7499 167.073 96.6165 168.206 96.6165C171.339 96.6165 174.273 97.1832 177.006 98.3165C179.739 99.4499 182.173 101.017 184.306 103.017C186.439 105.017 188.106 107.383 189.306 110.117C190.506 112.783 191.106 115.65 191.106 118.717C191.106 123.383 189.906 127.55 187.506 131.217C185.173 134.817 181.973 137.683 177.906 139.817C173.906 141.95 169.439 143.017 164.506 143.017Z" fill="#262626"/>
</g>
<defs>
<filter id="filter0_d_131_90" x="0.603271" y="0" width="232.793" height="208" filterUnits="userSpaceOnUse" color-interpolation-filters="sRGB">
<feFlood flood-opacity="0" result="BackgroundImageFix"/>
<feColorMatrix in="SourceAlpha" type="matrix" values="0 0 0 0 0 0 0 0 0 0 0 0 0 0 0 0 0 0 127 0" result="hardAlpha"/>
<feOffset dy="4"/>
<feGaussianBlur stdDeviation="2"/>
<feComposite in2="hardAlpha" operator="out"/>
<feColorMatrix type="matrix" values="0 0 0 0 0 0 0 0 0 0 0 0 0 0 0 0 0 0 0.25 0"/>
<feBlend mode="normal" in2="BackgroundImageFix" result="effect1_dropShadow_131_90"/>
<feBlend mode="normal" in="SourceGraphic" in2="effect1_dropShadow_131_90" result="shape"/>
</filter>
</defs>
</svg>
