<svg width="229" height="208" viewBox="0 0 229 208" fill="none" xmlns="http://www.w3.org/2000/svg">
<g filter="url(#filter0_d_140_73)">
<path d="M139.711 38.0165L55.4133 152.066V152.066C35.9625 170.262 4.17363 156.47 4.17363 129.835V38.0165H139.711Z" fill="#358C75"/>
<path d="M24.9582 133.934V56.9339H58.1782C63.0182 56.9339 67.3082 58.0339 71.0482 60.2339C74.8615 62.4339 77.8682 65.4405 80.0682 69.2539C82.3415 73.0672 83.4782 77.3572 83.4782 82.1239C83.4782 87.1105 82.3415 91.5839 80.0682 95.5439C77.8682 99.4305 74.8615 102.511 71.0482 104.784C67.3082 107.057 63.0182 108.194 58.1782 108.194H43.6582V133.934H24.9582ZM43.3282 91.8039H55.5382C57.1515 91.8039 58.6182 91.4005 59.9382 90.5939C61.2582 89.7872 62.3215 88.6872 63.1282 87.2939C63.9349 85.9005 64.3382 84.2872 64.3382 82.4539C64.3382 80.5472 63.9349 78.9339 63.1282 77.6139C62.3215 76.2939 61.2582 75.2672 59.9382 74.5339C58.6182 73.8005 57.1515 73.4339 55.5382 73.4339H43.3282V91.8039Z" fill="#E0E0E0"/>
<path d="M66.157 161.983L150.455 47.9339V47.9339C169.905 29.7379 201.694 43.5302 201.694 70.1652L201.694 161.983L66.157 161.983Z" fill="#545454"/>
<path d="M163.332 142.717C158.066 142.717 153.266 141.65 148.932 139.517C144.666 137.383 141.132 134.317 138.332 130.317L147.432 120.317C150.166 123.317 152.699 125.383 155.032 126.517C157.366 127.583 159.966 128.117 162.832 128.117C164.966 128.117 166.866 127.683 168.532 126.817C170.199 125.95 171.499 124.75 172.432 123.217C173.432 121.617 173.932 119.85 173.932 117.917C173.932 115.917 173.432 114.15 172.432 112.617C171.499 111.017 170.199 109.75 168.532 108.817C166.932 107.883 165.066 107.417 162.932 107.417C161.399 107.417 159.966 107.55 158.632 107.817C157.299 108.083 155.866 108.55 154.332 109.217C152.866 109.817 151.099 110.717 149.032 111.917L141.832 102.317L146.132 71.4165H186.332V85.7165H154.232L158.632 80.1165L155.332 102.317L149.332 100.317C150.599 99.1832 152.132 98.1832 153.932 97.3165C155.799 96.4499 157.799 95.7499 159.932 95.2165C162.066 94.6165 164.199 94.3165 166.332 94.3165C170.732 94.3165 174.666 95.3499 178.132 97.4165C181.666 99.4165 184.466 102.217 186.532 105.817C188.599 109.417 189.632 113.55 189.632 118.217C189.632 122.817 188.466 126.983 186.132 130.717C183.799 134.383 180.666 137.317 176.732 139.517C172.799 141.65 168.332 142.717 163.332 142.717Z" fill="#E3E3E3"/>
</g>
<defs>
<filter id="filter0_d_140_73" x="0.173584" y="0" width="232.793" height="208" filterUnits="userSpaceOnUse" color-interpolation-filters="sRGB">
<feFlood flood-opacity="0" result="BackgroundImageFix"/>
<feColorMatrix in="SourceAlpha" type="matrix" values="0 0 0 0 0 0 0 0 0 0 0 0 0 0 0 0 0 0 127 0" result="hardAlpha"/>
<feOffset dy="4"/>
<feGaussianBlur stdDeviation="2"/>
<feComposite in2="hardAlpha" operator="out"/>
<feColorMatrix type="matrix" values="0 0 0 0 0 0 0 0 0 0 0 0 0 0 0 0 0 0 0.25 0"/>
<feBlend mode="normal" in2="BackgroundImageFix" result="effect1_dropShadow_140_73"/>
<feBlend mode="normal" in="SourceGraphic" in2="effect1_dropShadow_140_73" result="shape"/>
</filter>
</defs>
</svg>
