<svg width="229" height="200" viewBox="0 0 229 200" fill="none" xmlns="http://www.w3.org/2000/svg">
<g filter="url(#filter0_d_131_111)">
<path d="M139.727 38.0165L55.4297 152.066C35.9789 170.262 4.19006 156.47 4.19006 129.835V38.0165H139.727Z" fill="#272727"/>
<path d="M24.9747 133.934V56.9339H58.1947C63.0347 56.9339 67.3247 58.0339 71.0647 60.2339C74.8781 62.4339 77.8847 65.4406 80.0847 69.2539C82.3581 73.0672 83.4947 77.3572 83.4947 82.1239C83.4947 87.1106 82.3581 91.5839 80.0847 95.5439C77.8847 99.4306 74.8781 102.511 71.0647 104.784C67.3247 107.057 63.0347 108.194 58.1947 108.194H43.6747V133.934H24.9747ZM43.3447 91.8039H55.5547C57.1681 91.8039 58.6347 91.4006 59.9547 90.5939C61.2747 89.7872 62.3381 88.6872 63.1447 87.2939C63.9514 85.9006 64.3547 84.2872 64.3547 82.4539C64.3547 80.5472 63.9514 78.9339 63.1447 77.6139C62.3381 76.2939 61.2747 75.2672 59.9547 74.5339C58.6347 73.8006 57.1681 73.4339 55.5547 73.4339H43.3447V91.8039Z" fill="#E0E0E0"/>
<path d="M66.1735 161.983L150.471 47.9339C169.922 29.7379 201.711 43.5302 201.711 70.1652L201.711 161.983L66.1735 161.983Z" fill="#DE0000"/>
<path d="M163.349 142.717C158.082 142.717 153.282 141.65 148.949 139.517C144.682 137.383 141.149 134.317 138.349 130.317L147.449 120.317C150.182 123.317 152.715 125.383 155.049 126.517C157.382 127.583 159.982 128.117 162.849 128.117C164.982 128.117 166.882 127.683 168.549 126.817C170.215 125.95 171.515 124.75 172.449 123.217C173.449 121.617 173.949 119.85 173.949 117.917C173.949 115.917 173.449 114.15 172.449 112.617C171.515 111.017 170.215 109.75 168.549 108.817C166.949 107.883 165.082 107.417 162.949 107.417C161.415 107.417 159.982 107.55 158.649 107.817C157.315 108.083 155.882 108.55 154.349 109.217C152.882 109.817 151.115 110.717 149.049 111.917L141.849 102.317L146.149 71.4165H186.349V85.7165H154.249L158.649 80.1165L155.349 102.317L149.349 100.317C150.615 99.1832 152.149 98.1832 153.949 97.3165C155.815 96.4499 157.815 95.7499 159.949 95.2165C162.082 94.6165 164.215 94.3165 166.349 94.3165C170.749 94.3165 174.682 95.3499 178.149 97.4165C181.682 99.4165 184.482 102.217 186.549 105.817C188.615 109.417 189.649 113.55 189.649 118.217C189.649 122.817 188.482 126.983 186.149 130.717C183.815 134.383 180.682 137.317 176.749 139.517C172.815 141.65 168.349 142.717 163.349 142.717Z" fill="#E3E3E3"/>
</g>
<defs>
<filter id="filter0_d_131_111" x="0.190063" y="0" width="232.793" height="208" filterUnits="userSpaceOnUse" color-interpolation-filters="sRGB">
<feFlood flood-opacity="0" result="BackgroundImageFix"/>
<feColorMatrix in="SourceAlpha" type="matrix" values="0 0 0 0 0 0 0 0 0 0 0 0 0 0 0 0 0 0 127 0" result="hardAlpha"/>
<feOffset dy="4"/>
<feGaussianBlur stdDeviation="2"/>
<feComposite in2="hardAlpha" operator="out"/>
<feColorMatrix type="matrix" values="0 0 0 0 0 0 0 0 0 0 0 0 0 0 0 0 0 0 0.25 0"/>
<feBlend mode="normal" in2="BackgroundImageFix" result="effect1_dropShadow_131_111"/>
<feBlend mode="normal" in="SourceGraphic" in2="effect1_dropShadow_131_111" result="shape"/>
</filter>
</defs>
</svg>
