<svg width="230" height="208" viewBox="0 0 230 208" fill="none" xmlns="http://www.w3.org/2000/svg">
<g filter="url(#filter0_d_140_80)">
<path d="M140.504 38.0165L56.2067 152.066V152.066C36.7559 170.262 4.96709 156.47 4.96709 129.835V38.0165H140.504Z" fill="#43AAD7"/>
<path d="M25.7517 133.934V56.9339H58.9717C63.8117 56.9339 68.1017 58.0339 71.8417 60.2339C75.655 62.4339 78.6617 65.4405 80.8617 69.2539C83.135 73.0672 84.2717 77.3572 84.2717 82.1239C84.2717 87.1105 83.135 91.5839 80.8617 95.5439C78.6617 99.4305 75.655 102.511 71.8417 104.784C68.1017 107.057 63.8117 108.194 58.9717 108.194H44.4517V133.934H25.7517ZM44.1217 91.8039H56.3317C57.945 91.8039 59.4117 91.4005 60.7317 90.5939C62.0517 89.7872 63.115 88.6872 63.9217 87.2939C64.7283 85.9005 65.1317 84.2872 65.1317 82.4539C65.1317 80.5472 64.7283 78.9339 63.9217 77.6139C63.115 76.2939 62.0517 75.2672 60.7317 74.5339C59.4117 73.8005 57.945 73.4339 56.3317 73.4339H44.1217V91.8039Z" fill="#E0E0E0"/>
<path d="M66.9506 161.983L151.248 47.9339V47.9339C170.699 29.7379 202.488 43.5302 202.488 70.1652L202.488 161.983L66.9506 161.983Z" fill="#CF77C6"/>
<path d="M166.462 142C162.862 142 159.462 141.367 156.262 140.1C153.128 138.767 150.395 136.967 148.062 134.7C145.728 132.367 143.862 129.667 142.462 126.6C141.128 123.533 140.462 120.233 140.462 116.7C140.462 114.233 140.728 111.867 141.262 109.6C141.795 107.267 142.528 104.933 143.462 102.6C144.462 100.2 145.628 97.7667 146.962 95.3C148.362 92.7667 149.895 90.1 151.562 87.3L161.362 70.9H177.062L177.462 71.9L163.862 93.3C162.128 96.1 160.628 98.7333 159.362 101.2C158.095 103.6 156.962 106 155.962 108.4C154.962 110.8 153.962 113.333 152.962 116L149.762 109.1C150.428 106.767 151.495 104.633 152.962 102.7C154.428 100.7 156.128 99 158.062 97.6C160.062 96.1333 162.128 95.0333 164.262 94.3C166.395 93.5 168.495 93.1 170.562 93.1C174.495 93.1 178.095 94.1667 181.362 96.3C184.695 98.3667 187.362 101.133 189.362 104.6C191.362 108.067 192.362 111.867 192.362 116C192.362 120.933 191.228 125.367 188.962 129.3C186.762 133.233 183.695 136.333 179.762 138.6C175.895 140.867 171.462 142 166.462 142ZM166.662 128C168.795 128 170.662 127.533 172.262 126.6C173.928 125.667 175.228 124.367 176.162 122.7C177.095 120.967 177.562 119 177.562 116.8C177.562 114.933 177.062 113.2 176.062 111.6C175.128 109.933 173.828 108.6 172.162 107.6C170.562 106.533 168.762 106 166.762 106C164.628 106 162.695 106.5 160.962 107.5C159.295 108.433 157.995 109.733 157.062 111.4C156.128 113 155.662 114.8 155.662 116.8C155.662 118.933 156.128 120.867 157.062 122.6C157.995 124.267 159.295 125.6 160.962 126.6C162.628 127.533 164.528 128 166.662 128Z" fill="#E3E3E3"/>
</g>
<defs>
<filter id="filter0_d_140_80" x="0.967041" y="0" width="232.793" height="208" filterUnits="userSpaceOnUse" color-interpolation-filters="sRGB">
<feFlood flood-opacity="0" result="BackgroundImageFix"/>
<feColorMatrix in="SourceAlpha" type="matrix" values="0 0 0 0 0 0 0 0 0 0 0 0 0 0 0 0 0 0 127 0" result="hardAlpha"/>
<feOffset dy="4"/>
<feGaussianBlur stdDeviation="2"/>
<feComposite in2="hardAlpha" operator="out"/>
<feColorMatrix type="matrix" values="0 0 0 0 0 0 0 0 0 0 0 0 0 0 0 0 0 0 0.25 0"/>
<feBlend mode="normal" in2="BackgroundImageFix" result="effect1_dropShadow_140_80"/>
<feBlend mode="normal" in="SourceGraphic" in2="effect1_dropShadow_140_80" result="shape"/>
</filter>
</defs>
</svg>
