<svg width="229" height="200" viewBox="0 0 229 200" fill="none" xmlns="http://www.w3.org/2000/svg">
<g filter="url(#filter0_d_131_69)">
<path d="M139.554 38.0165L55.2561 152.066C35.8053 170.262 4.01648 156.47 4.01648 129.835V38.0165H139.554Z" fill="#FF9900"/>
<path d="M24.8011 133.934V56.9339H58.0211C62.8611 56.9339 67.1511 58.0339 70.8911 60.2339C74.7044 62.4339 77.7111 65.4406 79.9111 69.2539C82.1844 73.0672 83.3211 77.3572 83.3211 82.1239C83.3211 87.1106 82.1844 91.5839 79.9111 95.5439C77.7111 99.4306 74.7044 102.511 70.8911 104.784C67.1511 107.057 62.8611 108.194 58.0211 108.194H43.5011V133.934H24.8011ZM43.1711 91.8039H55.3811C56.9944 91.8039 58.4611 91.4006 59.7811 90.5939C61.1011 89.7872 62.1644 88.6872 62.9711 87.2939C63.7778 85.9006 64.1811 84.2872 64.1811 82.4539C64.1811 80.5472 63.7778 78.9339 62.9711 77.6139C62.1644 76.2939 61.1011 75.2672 59.7811 74.5339C58.4611 73.8006 56.9944 73.4339 55.3811 73.4339H43.1711V91.8039Z" fill="#E0E0E0"/>
<path d="M65.9999 161.983L150.297 47.9339C169.748 29.7379 201.537 43.5302 201.537 70.1652L201.537 161.983L65.9999 161.983Z" fill="#545454"/>
<path d="M165.205 142.017C161.605 142.017 158.205 141.383 155.005 140.117C151.872 138.783 149.138 136.983 146.805 134.717C144.472 132.383 142.605 129.683 141.205 126.617C139.872 123.55 139.205 120.25 139.205 116.717C139.205 114.25 139.472 111.883 140.005 109.617C140.538 107.283 141.272 104.95 142.205 102.617C143.205 100.217 144.372 97.7832 145.705 95.3165C147.105 92.7832 148.638 90.1165 150.305 87.3165L160.105 70.9165H175.805L176.205 71.9165L162.605 93.3165C160.872 96.1165 159.372 98.7499 158.105 101.217C156.838 103.617 155.705 106.017 154.705 108.417C153.705 110.817 152.705 113.35 151.705 116.017L148.505 109.117C149.172 106.783 150.238 104.65 151.705 102.717C153.172 100.717 154.872 99.0165 156.805 97.6165C158.805 96.1499 160.872 95.0499 163.005 94.3165C165.138 93.5165 167.238 93.1165 169.305 93.1165C173.238 93.1165 176.838 94.1832 180.105 96.3165C183.438 98.3832 186.105 101.15 188.105 104.617C190.105 108.083 191.105 111.883 191.105 116.017C191.105 120.95 189.972 125.383 187.705 129.317C185.505 133.25 182.438 136.35 178.505 138.617C174.638 140.883 170.205 142.017 165.205 142.017ZM165.405 128.017C167.538 128.017 169.405 127.55 171.005 126.617C172.672 125.683 173.972 124.383 174.905 122.717C175.838 120.983 176.305 119.017 176.305 116.817C176.305 114.95 175.805 113.217 174.805 111.617C173.872 109.95 172.572 108.617 170.905 107.617C169.305 106.55 167.505 106.017 165.505 106.017C163.372 106.017 161.438 106.517 159.705 107.517C158.038 108.45 156.738 109.75 155.805 111.417C154.872 113.017 154.405 114.817 154.405 116.817C154.405 118.95 154.872 120.883 155.805 122.617C156.738 124.283 158.038 125.617 159.705 126.617C161.372 127.55 163.272 128.017 165.405 128.017Z" fill="#E0E0E0"/>
</g>
<defs>
<filter id="filter0_d_131_69" x="0.0164795" y="0" width="232.793" height="208" filterUnits="userSpaceOnUse" color-interpolation-filters="sRGB">
<feFlood flood-opacity="0" result="BackgroundImageFix"/>
<feColorMatrix in="SourceAlpha" type="matrix" values="0 0 0 0 0 0 0 0 0 0 0 0 0 0 0 0 0 0 127 0" result="hardAlpha"/>
<feOffset dy="4"/>
<feGaussianBlur stdDeviation="2"/>
<feComposite in2="hardAlpha" operator="out"/>
<feColorMatrix type="matrix" values="0 0 0 0 0 0 0 0 0 0 0 0 0 0 0 0 0 0 0.25 0"/>
<feBlend mode="normal" in2="BackgroundImageFix" result="effect1_dropShadow_131_69"/>
<feBlend mode="normal" in="SourceGraphic" in2="effect1_dropShadow_131_69" result="shape"/>
</filter>
</defs>
</svg>
