<svg width="229" height="208" viewBox="0 0 229 208" fill="none" xmlns="http://www.w3.org/2000/svg">
<g filter="url(#filter0_d_140_94)">
<path d="M139.537 38.0165L55.2397 152.066V152.066C35.7888 170.262 4 156.47 4 129.835V38.0165H139.537Z" fill="#0E1C20"/>
<path d="M24.7847 133.934V56.9339H58.0047C62.8447 56.9339 67.1347 58.0339 70.8747 60.2339C74.688 62.4339 77.6947 65.4406 79.8947 69.2539C82.168 73.0672 83.3047 77.3572 83.3047 82.1239C83.3047 87.1106 82.168 91.5839 79.8947 95.5439C77.6947 99.4306 74.688 102.511 70.8747 104.784C67.1347 107.057 62.8447 108.194 58.0047 108.194H43.4847V133.934H24.7847ZM43.1547 91.8039H55.3647C56.978 91.8039 58.4447 91.4006 59.7647 90.5939C61.0847 89.7872 62.148 88.6872 62.9547 87.2939C63.7613 85.9006 64.1647 84.2872 64.1647 82.4539C64.1647 80.5472 63.7613 78.9339 62.9547 77.6139C62.148 76.2939 61.0847 75.2672 59.7647 74.5339C58.4447 73.8006 56.978 73.4339 55.3647 73.4339H43.1547V91.8039Z" fill="#E0E0E0"/>
<path d="M65.9835 161.983L150.281 47.9339V47.9339C169.732 29.7379 201.521 43.5302 201.521 70.1652L201.521 161.983L65.9835 161.983Z" fill="#545454"/>
<path d="M159.018 142.3C154.218 142.3 149.851 141.4 145.918 139.6C142.051 137.733 138.951 135.233 136.618 132.1C134.285 128.967 133.118 125.433 133.118 121.5C133.118 118.9 133.451 116.567 134.118 114.5C134.785 112.367 135.785 110.5 137.118 108.9C138.518 107.233 140.185 105.833 142.118 104.7C144.118 103.5 146.385 102.533 148.918 101.8L147.718 105.8C145.851 105.067 144.151 104.167 142.618 103.1C141.085 102.033 139.785 100.833 138.718 99.5C137.651 98.1 136.818 96.6 136.218 95C135.685 93.4 135.418 91.7333 135.418 90C135.418 86.2667 136.451 82.9667 138.518 80.1C140.651 77.2333 143.485 75 147.018 73.4C150.618 71.7333 154.618 70.9 159.018 70.9C163.351 70.9 167.285 71.7333 170.818 73.4C174.418 75 177.285 77.2333 179.418 80.1C181.551 82.9667 182.618 86.2667 182.618 90C182.618 91.7333 182.351 93.4 181.818 95C181.285 96.6 180.485 98.0667 179.418 99.4C178.351 100.667 177.051 101.867 175.518 103C173.985 104.067 172.218 105 170.218 105.8L169.318 102.2C171.585 102.8 173.685 103.667 175.618 104.8C177.551 105.867 179.218 107.233 180.618 108.9C182.018 110.5 183.085 112.367 183.818 114.5C184.618 116.567 185.018 118.9 185.018 121.5C185.018 125.5 183.851 129.067 181.518 132.2C179.185 135.333 176.051 137.8 172.118 139.6C168.185 141.4 163.818 142.3 159.018 142.3ZM159.018 128.9C160.885 128.9 162.551 128.533 164.018 127.8C165.485 127.067 166.651 126.067 167.518 124.8C168.385 123.533 168.818 122.067 168.818 120.4C168.818 118.667 168.385 117.167 167.518 115.9C166.718 114.567 165.551 113.533 164.018 112.8C162.551 112 160.885 111.6 159.018 111.6C157.151 111.6 155.485 112 154.018 112.8C152.551 113.533 151.385 114.567 150.518 115.9C149.651 117.167 149.218 118.667 149.218 120.4C149.218 122 149.651 123.433 150.518 124.7C151.385 125.967 152.551 127 154.018 127.8C155.485 128.533 157.151 128.9 159.018 128.9ZM159.018 98.1C160.618 98.1 162.051 97.8 163.318 97.2C164.651 96.5333 165.685 95.6667 166.418 94.6C167.151 93.4667 167.518 92.1667 167.518 90.7C167.518 89.2333 167.151 87.9333 166.418 86.8C165.685 85.6667 164.651 84.7667 163.318 84.1C162.051 83.4333 160.618 83.1 159.018 83.1C157.351 83.1 155.851 83.4333 154.518 84.1C153.251 84.7667 152.251 85.6667 151.518 86.8C150.785 87.9333 150.418 89.2333 150.418 90.7C150.418 92.1667 150.785 93.4667 151.518 94.6C152.251 95.6667 153.251 96.5333 154.518 97.2C155.851 97.8 157.351 98.1 159.018 98.1Z" fill="#E3E3E3"/>
</g>
<defs>
<filter id="filter0_d_140_94" x="0" y="0" width="232.793" height="208" filterUnits="userSpaceOnUse" color-interpolation-filters="sRGB">
<feFlood flood-opacity="0" result="BackgroundImageFix"/>
<feColorMatrix in="SourceAlpha" type="matrix" values="0 0 0 0 0 0 0 0 0 0 0 0 0 0 0 0 0 0 127 0" result="hardAlpha"/>
<feOffset dy="4"/>
<feGaussianBlur stdDeviation="2"/>
<feComposite in2="hardAlpha" operator="out"/>
<feColorMatrix type="matrix" values="0 0 0 0 0 0 0 0 0 0 0 0 0 0 0 0 0 0 0.25 0"/>
<feBlend mode="normal" in2="BackgroundImageFix" result="effect1_dropShadow_140_94"/>
<feBlend mode="normal" in="SourceGraphic" in2="effect1_dropShadow_140_94" result="shape"/>
</filter>
</defs>
</svg>
