<svg width="230" height="200" viewBox="0 0 230 200" fill="none" xmlns="http://www.w3.org/2000/svg">
<g filter="url(#filter0_d_131_83)">
<path d="M140.14 38.0165L55.8429 152.066C36.3921 170.262 4.60328 156.47 4.60328 129.835V38.0165H140.14Z" fill="#2F2F2F"/>
<path d="M25.3879 133.934V56.9339H58.6079C63.4479 56.9339 67.7379 58.0339 71.4779 60.2339C75.2913 62.4339 78.2979 65.4406 80.4979 69.2539C82.7713 73.0672 83.9079 77.3572 83.9079 82.1239C83.9079 87.1106 82.7713 91.5839 80.4979 95.5439C78.2979 99.4306 75.2913 102.511 71.4779 104.784C67.7379 107.057 63.4479 108.194 58.6079 108.194H44.0879V133.934H25.3879ZM43.7579 91.8039H55.9679C57.5813 91.8039 59.0479 91.4006 60.3679 90.5939C61.6879 89.7872 62.7513 88.6872 63.5579 87.2939C64.3646 85.9006 64.7679 84.2872 64.7679 82.4539C64.7679 80.5472 64.3646 78.9339 63.5579 77.6139C62.7513 76.2939 61.6879 75.2672 60.3679 74.5339C59.0479 73.8006 57.5813 73.4339 55.9679 73.4339H43.7579V91.8039Z" fill="#E0E0E0"/>
<path d="M66.5868 161.983L150.884 47.9339C170.335 29.7379 202.124 43.5302 202.124 70.1652L202.124 161.983L66.5868 161.983Z" fill="#6CD3BF"/>
<path d="M165.315 142.317C160.515 142.317 156.149 141.417 152.215 139.617C148.349 137.75 145.249 135.25 142.915 132.117C140.582 128.983 139.415 125.45 139.415 121.517C139.415 118.917 139.749 116.583 140.415 114.517C141.082 112.383 142.082 110.517 143.415 108.917C144.815 107.25 146.482 105.85 148.415 104.717C150.415 103.517 152.682 102.55 155.215 101.817L154.015 105.817C152.149 105.083 150.449 104.183 148.915 103.117C147.382 102.05 146.082 100.85 145.015 99.5165C143.949 98.1165 143.115 96.6165 142.515 95.0165C141.982 93.4165 141.715 91.7499 141.715 90.0165C141.715 86.2832 142.749 82.9832 144.815 80.1165C146.949 77.2499 149.782 75.0165 153.315 73.4165C156.915 71.7499 160.915 70.9165 165.315 70.9165C169.649 70.9165 173.582 71.7499 177.115 73.4165C180.715 75.0165 183.582 77.2499 185.715 80.1165C187.849 82.9832 188.915 86.2832 188.915 90.0165C188.915 91.7499 188.649 93.4165 188.115 95.0165C187.582 96.6165 186.782 98.0832 185.715 99.4165C184.649 100.683 183.349 101.883 181.815 103.017C180.282 104.083 178.515 105.017 176.515 105.817L175.615 102.217C177.882 102.817 179.982 103.683 181.915 104.817C183.849 105.883 185.515 107.25 186.915 108.917C188.315 110.517 189.382 112.383 190.115 114.517C190.915 116.583 191.315 118.917 191.315 121.517C191.315 125.517 190.149 129.083 187.815 132.217C185.482 135.35 182.349 137.817 178.415 139.617C174.482 141.417 170.115 142.317 165.315 142.317ZM165.315 128.917C167.182 128.917 168.849 128.55 170.315 127.817C171.782 127.083 172.949 126.083 173.815 124.817C174.682 123.55 175.115 122.083 175.115 120.417C175.115 118.683 174.682 117.183 173.815 115.917C173.015 114.583 171.849 113.55 170.315 112.817C168.849 112.017 167.182 111.617 165.315 111.617C163.449 111.617 161.782 112.017 160.315 112.817C158.849 113.55 157.682 114.583 156.815 115.917C155.949 117.183 155.515 118.683 155.515 120.417C155.515 122.017 155.949 123.45 156.815 124.717C157.682 125.983 158.849 127.017 160.315 127.817C161.782 128.55 163.449 128.917 165.315 128.917ZM165.315 98.1165C166.915 98.1165 168.349 97.8165 169.615 97.2165C170.949 96.5499 171.982 95.6832 172.715 94.6165C173.449 93.4832 173.815 92.1832 173.815 90.7165C173.815 89.2499 173.449 87.9499 172.715 86.8165C171.982 85.6832 170.949 84.7832 169.615 84.1165C168.349 83.4499 166.915 83.1165 165.315 83.1165C163.649 83.1165 162.149 83.4499 160.815 84.1165C159.549 84.7832 158.549 85.6832 157.815 86.8165C157.082 87.9499 156.715 89.2499 156.715 90.7165C156.715 92.1832 157.082 93.4832 157.815 94.6165C158.549 95.6832 159.549 96.5499 160.815 97.2165C162.149 97.8165 163.649 98.1165 165.315 98.1165Z" fill="#262626"/>
</g>
<defs>
<filter id="filter0_d_131_83" x="0.603271" y="0" width="232.793" height="208" filterUnits="userSpaceOnUse" color-interpolation-filters="sRGB">
<feFlood flood-opacity="0" result="BackgroundImageFix"/>
<feColorMatrix in="SourceAlpha" type="matrix" values="0 0 0 0 0 0 0 0 0 0 0 0 0 0 0 0 0 0 127 0" result="hardAlpha"/>
<feOffset dy="4"/>
<feGaussianBlur stdDeviation="2"/>
<feComposite in2="hardAlpha" operator="out"/>
<feColorMatrix type="matrix" values="0 0 0 0 0 0 0 0 0 0 0 0 0 0 0 0 0 0 0.25 0"/>
<feBlend mode="normal" in2="BackgroundImageFix" result="effect1_dropShadow_131_83"/>
<feBlend mode="normal" in="SourceGraphic" in2="effect1_dropShadow_131_83" result="shape"/>
</filter>
</defs>
</svg>
