<svg width="230" height="208" viewBox="0 0 230 208" fill="none" xmlns="http://www.w3.org/2000/svg">
<g filter="url(#filter0_d_140_101)">
<path d="M140.331 38.0165L56.033 152.066V152.066C36.5822 170.262 4.79339 156.47 4.79339 129.835V38.0165H140.331Z" fill="#C41212"/>
<path d="M25.578 133.934V56.9339H58.7981C63.6381 56.9339 67.9281 58.0339 71.6681 60.2339C75.4814 62.4339 78.4881 65.4406 80.6881 69.2539C82.9614 73.0672 84.098 77.3572 84.098 82.1239C84.098 87.1106 82.9614 91.5839 80.6881 95.5439C78.4881 99.4306 75.4814 102.511 71.6681 104.784C67.9281 107.057 63.6381 108.194 58.7981 108.194H44.2781V133.934H25.578ZM43.9481 91.8039H56.1581C57.7714 91.8039 59.238 91.4006 60.5581 90.5939C61.8781 89.7872 62.9414 88.6872 63.7481 87.2939C64.5547 85.9006 64.958 84.2872 64.958 82.4539C64.958 80.5472 64.5547 78.9339 63.7481 77.6139C62.9414 76.2939 61.8781 75.2672 60.5581 74.5339C59.238 73.8006 57.7714 73.4339 56.1581 73.4339H43.9481V91.8039Z" fill="#E0E0E0"/>
<path d="M66.7769 161.983L151.074 47.9339V47.9339C170.525 29.7379 202.314 43.5302 202.314 70.1652L202.314 161.983L66.7769 161.983Z" fill="#1E1E1E"/>
<path d="M157.786 142L157.386 141L179.286 96.8L182.186 102.8C181.519 105.2 180.452 107.367 178.986 109.3C177.519 111.233 175.752 112.933 173.686 114.4C171.686 115.8 169.586 116.9 167.386 117.7C165.186 118.433 163.086 118.8 161.086 118.8C157.286 118.8 153.786 117.767 150.586 115.7C147.386 113.633 144.819 110.867 142.886 107.4C140.952 103.933 139.986 100.167 139.986 96.1C139.986 91.3 141.119 86.9667 143.386 83.1C145.719 79.1667 148.852 76.0667 152.786 73.8C156.719 71.4667 161.152 70.3 166.086 70.3C169.686 70.3 173.052 70.9333 176.186 72.2C179.319 73.4667 182.052 75.2333 184.386 77.5C186.786 79.7 188.652 82.2667 189.986 85.2C191.319 88.1333 191.986 91.2333 191.986 94.5C191.986 96.9 191.786 99.2667 191.386 101.6C190.986 103.867 190.352 106.2 189.486 108.6C188.619 111 187.586 113.5 186.386 116.1C185.252 118.7 183.919 121.533 182.386 124.6L173.586 142H157.786ZM165.186 105.4C167.252 105.4 169.086 104.933 170.686 104C172.286 103.067 173.519 101.833 174.386 100.3C175.319 98.7 175.786 96.9333 175.786 95C175.786 92.9333 175.319 91.1 174.386 89.5C173.519 87.8333 172.286 86.5333 170.686 85.6C169.152 84.6667 167.352 84.2 165.286 84.2C163.286 84.2 161.519 84.6667 159.986 85.6C158.519 86.4667 157.319 87.7333 156.386 89.4C155.519 91 155.086 92.8667 155.086 95C155.086 96.8 155.519 98.5 156.386 100.1C157.319 101.633 158.552 102.9 160.086 103.9C161.619 104.9 163.319 105.4 165.186 105.4Z" fill="#E3E3E3"/>
</g>
<defs>
<filter id="filter0_d_140_101" x="0.793388" y="0" width="232.793" height="208" filterUnits="userSpaceOnUse" color-interpolation-filters="sRGB">
<feFlood flood-opacity="0" result="BackgroundImageFix"/>
<feColorMatrix in="SourceAlpha" type="matrix" values="0 0 0 0 0 0 0 0 0 0 0 0 0 0 0 0 0 0 127 0" result="hardAlpha"/>
<feOffset dy="4"/>
<feGaussianBlur stdDeviation="2"/>
<feComposite in2="hardAlpha" operator="out"/>
<feColorMatrix type="matrix" values="0 0 0 0 0 0 0 0 0 0 0 0 0 0 0 0 0 0 0.25 0"/>
<feBlend mode="normal" in2="BackgroundImageFix" result="effect1_dropShadow_140_101"/>
<feBlend mode="normal" in="SourceGraphic" in2="effect1_dropShadow_140_101" result="shape"/>
</filter>
</defs>
</svg>
