<svg width="230" height="200" viewBox="0 0 230 200" fill="none" xmlns="http://www.w3.org/2000/svg">
<g filter="url(#filter0_d_131_104)">
<path d="M139.934 38.0165L55.6363 152.066C36.1855 170.262 4.39666 156.47 4.39666 129.835V38.0165H139.934Z" fill="#FF9900"/>
<path d="M25.1813 133.934V56.9339H58.4013C63.2413 56.9339 67.5313 58.0339 71.2713 60.2339C75.0847 62.4339 78.0913 65.4406 80.2913 69.2539C82.5647 73.0672 83.7013 77.3572 83.7013 82.1239C83.7013 87.1106 82.5647 91.5839 80.2913 95.5439C78.0913 99.4306 75.0847 102.511 71.2713 104.784C67.5313 107.057 63.2413 108.194 58.4013 108.194H43.8813V133.934H25.1813ZM43.5513 91.8039H55.7613C57.3747 91.8039 58.8413 91.4006 60.1613 90.5939C61.4813 89.7872 62.5447 88.6872 63.3513 87.2939C64.158 85.9006 64.5613 84.2872 64.5613 82.4539C64.5613 80.5472 64.158 78.9339 63.3513 77.6139C62.5447 76.2939 61.4813 75.2672 60.1613 74.5339C58.8413 73.8006 57.3747 73.4339 55.7613 73.4339H43.5513V91.8039Z" fill="#E0E0E0"/>
<path d="M66.3801 161.983L150.678 47.9339C170.129 29.7379 201.917 43.5302 201.917 70.1652L201.917 161.983L66.3801 161.983Z" fill="#545454"/>
<path d="M157.083 142.017L156.683 141.017L178.583 96.8165L181.483 102.817C180.816 105.217 179.75 107.383 178.283 109.317C176.816 111.25 175.05 112.95 172.983 114.417C170.983 115.817 168.883 116.917 166.683 117.717C164.483 118.45 162.383 118.817 160.383 118.817C156.583 118.817 153.083 117.783 149.883 115.717C146.683 113.65 144.116 110.883 142.183 107.417C140.25 103.95 139.283 100.183 139.283 96.1165C139.283 91.3165 140.416 86.9832 142.683 83.1165C145.016 79.1832 148.15 76.0832 152.083 73.8165C156.016 71.4832 160.45 70.3165 165.383 70.3165C168.983 70.3165 172.35 70.9499 175.483 72.2165C178.616 73.4832 181.35 75.2499 183.683 77.5165C186.083 79.7165 187.95 82.2832 189.283 85.2165C190.616 88.1499 191.283 91.2499 191.283 94.5165C191.283 96.9165 191.083 99.2832 190.683 101.617C190.283 103.883 189.65 106.217 188.783 108.617C187.916 111.017 186.883 113.517 185.683 116.117C184.55 118.717 183.216 121.55 181.683 124.617L172.883 142.017H157.083ZM164.483 105.417C166.55 105.417 168.383 104.95 169.983 104.017C171.583 103.083 172.816 101.85 173.683 100.317C174.616 98.7165 175.083 96.9499 175.083 95.0165C175.083 92.9499 174.616 91.1165 173.683 89.5165C172.816 87.8499 171.583 86.5499 169.983 85.6165C168.45 84.6832 166.65 84.2165 164.583 84.2165C162.583 84.2165 160.816 84.6832 159.283 85.6165C157.816 86.4832 156.616 87.7499 155.683 89.4165C154.816 91.0165 154.383 92.8832 154.383 95.0165C154.383 96.8165 154.816 98.5165 155.683 100.117C156.616 101.65 157.85 102.917 159.383 103.917C160.916 104.917 162.616 105.417 164.483 105.417Z" fill="#E0E0E0"/>
</g>
<defs>
<filter id="filter0_d_131_104" x="0.396667" y="0" width="232.793" height="208" filterUnits="userSpaceOnUse" color-interpolation-filters="sRGB">
<feFlood flood-opacity="0" result="BackgroundImageFix"/>
<feColorMatrix in="SourceAlpha" type="matrix" values="0 0 0 0 0 0 0 0 0 0 0 0 0 0 0 0 0 0 127 0" result="hardAlpha"/>
<feOffset dy="4"/>
<feGaussianBlur stdDeviation="2"/>
<feComposite in2="hardAlpha" operator="out"/>
<feColorMatrix type="matrix" values="0 0 0 0 0 0 0 0 0 0 0 0 0 0 0 0 0 0 0.25 0"/>
<feBlend mode="normal" in2="BackgroundImageFix" result="effect1_dropShadow_131_104"/>
<feBlend mode="normal" in="SourceGraphic" in2="effect1_dropShadow_131_104" result="shape"/>
</filter>
</defs>
</svg>
